{
  "accessors": [
    {
      "bufferView": 2,
      "componentType": 5126,
      "count": 54298,
      "max": [
        1212.374755859375,
        645.738525390625,
        604.88330078125
      ],
      "min": [
        -461.53668212890625,
        -311.1882019042969,
        -1368.418701171875
      ],
      "type": "VEC3"
    },
    {
      "bufferView": 2,
      "byteOffset": 651576,
      "componentType": 5126,
      "count": 54298,
      "max": [
        0.9999896883964539,
        0.9999955296516418,
        0.9999616742134094
      ],
      "min": [
        -0.9999697804450989,
        -0.9999823570251465,
        -0.9997534155845642
      ],
      "type": "VEC3"
    },
    {
      "bufferView": 3,
      "componentType": 5126,
      "count": 54298,
      "max": [
        0.9998637437820435,
        0.9999852776527405,
        0.9999630451202393,
        1.0
      ],
      "min": [
        -0.9999944567680359,
        -0.9999924898147583,
        -0.9999217391014099,
        1.0
      ],
      "type": "VEC4"
    },
    {
      "bufferView": 1,
      "componentType": 5126,
      "count": 54298,
      "max": [
        0.7459653615951538,
        0.9999186396598816
      ],
      "min": [
        8.138485281961039e-05,
        0.000244140625
      ],
      "type": "VEC2"
    },
    {
      "bufferView": 0,
      "componentType": 5125,
      "count": 314916,
      "type": "SCALAR"
    }
  ],
  "asset": {
    "extras": {
      "author": "WeSVa (https://sketchfab.com/WSVideoCarta)",
      "license": "SKETCHFAB Standard (https://sketchfab.com/licenses)",
      "source": "https://sketchfab.com/3d-models/mountain-d9d25e9d0712430082b2d88bda20e0a1",
      "title": "Mountain"
    },
    "generator": "Sketchfab-16.65.0",
    "version": "2.0"
  },
  "bufferViews": [
    {
      "buffer": 0,
      "byteLength": 1259664,
      "name": "floatBufferViews",
      "target": 34963
    },
    {
      "buffer": 0,
      "byteLength": 434384,
      "byteOffset": 1259664,
      "byteStride": 8,
      "name": "floatBufferViews",
      "target": 34962
    },
    {
      "buffer": 0,
      "byteLength": 1303152,
      "byteOffset": 1694048,
      "byteStride": 12,
      "name": "floatBufferViews",
      "target": 34962
    },
    {
      "buffer": 0,
      "byteLength": 868768,
      "byteOffset": 2997200,
      "byteStride": 16,
      "name": "floatBufferViews",
      "target": 34962
    }
  ],
  "buffers": [
    {
      "byteLength": 3865968,
      "uri": "scene.bin"
    }
  ],
  "images": [
    {
      "uri": "textures/Scene_-_Root_baseColor.png"
    },
    {
      "uri": "textures/Scene_-_Root_metallicRoughness.png"
    },
    {
      "uri": "textures/Scene_-_Root_normal.png"
    }
  ],
  "materials": [
    {
      "doubleSided": true,
      "name": "Scene_-_Root",
      "normalTexture": {
        "index": 2
      },
      "occlusionTexture": {
        "index": 1
      },
      "pbrMetallicRoughness": {
        "baseColorTexture": {
          "index": 0
        },
        "metallicFactor": 0.0,
        "metallicRoughnessTexture": {
          "index": 1
        }
      }
    }
  ],
  "meshes": [
    {
      "name": "Volume_Mesher__0",
      "primitives": [
        {
          "attributes": {
            "NORMAL": 1,
            "POSITION": 0,
            "TANGENT": 2,
            "TEXCOORD_0": 3
          },
          "indices": 4,
          "material": 0,
          "mode": 4
        }
      ]
    }
  ],
  "nodes": [
    {
      "children": [
        1
      ],
      "matrix": [
        1.0,
        0.0,
        0.0,
        0.0,
        0.0,
        2.220446049250313e-16,
        -1.0,
        0.0,
        0.0,
        1.0,
        2.220446049250313e-16,
        0.0,
        0.0,
        0.0,
        0.0,
        1.0
      ],
      "name": "Sketchfab_model"
    },
    {
      "children": [
        2
      ],
      "matrix": [
        0.009999999776482582,
        0.0,
        0.0,
        0.0,
        0.0,
        0.0,
        0.009999999776482582,
        0.0,
        0.0,
        -0.009999999776482582,
        0.0,
        0.0,
        0.0,
        0.0,
        0.0,
        1.0
      ],
      "name": "Mou.fbx"
    },
    {
      "children": [
        3,
        5
      ],
      "name": "RootNode"
    },
    {
      "children": [
        4
      ],
      "matrix": [
        -0.620243637706273,
        -0.45684100536685845,
        -0.6376473364645128,
        0.0,
        -0.3185354926022028,
        0.889548366203546,
        -0.3274734250855693,
        0.0,
        0.7168214351130702,
        0.0,
        -0.6972567892551771,
        0.0,
        1840.181396484375,
        1504.68798828125,
        2086.011474609375,
        1.0
      ],
      "name": "CINEMA_4D_Editor"
    },
    {
      "name": "Object_4"
    },
    {
      "children": [
        6
      ],
      "matrix": [
        1.0,
        -2.4492935982947064e-16,
        -2.4492935982947064e-16,
        0.0,
        2.4492935982947064e-16,
        1.0,
        -5.99903913064743e-32,
        0.0,
        2.4492935982947064e-16,
        0.0,
        1.0,
        0.0,
        18.990169525146484,
        3.0881052017211914,
        468.2565612792969,
        1.0
      ],
      "name": "Volume_Mesher"
    },
    {
      "mesh": 0,
      "name": "Volume_Mesher__0"
    }
  ],
  "samplers": [
    {
      "magFilter": 9729,
      "minFilter": 9987,
      "wrapS": 10497,
      "wrapT": 10497
    }
  ],
  "scene": 0,
  "scenes": [
    {
      "name": "Sketchfab_Scene",
      "nodes": [
        0
      ]
    }
  ],
  "textures": [
    {
      "sampler": 0,
      "source": 0
    },
    {
      "sampler": 0,
      "source": 1
    },
    {
      "sampler": 0,
      "source": 2
    }
  ]
}
