{
  "accessors": [
    {
      "bufferView": 2,
      "componentType": 5126,
      "count": 65532,
      "max": [
        0.626911997795105,
        0.48970499634742737,
        0.34915098547935486
      ],
      "min": [
        -0.6352729797363281,
        -0.4668459892272949,
        -0.34588000178337097
      ],
      "type": "VEC3"
    },
    {
      "bufferView": 2,
      "byteOffset": 786384,
      "componentType": 5126,
      "count": 65532,
      "max": [
        1.0,
        1.0,
        1.0
      ],
      "min": [
        -1.0,
        -1.0,
        -1.0
      ],
      "type": "VEC3"
    },
    {
      "bufferView": 3,
      "componentType": 5126,
      "count": 65532,
      "max": [
        1.0,
        0.9999997615814209,
        0.9999911785125732,
        1.0
      ],
      "min": [
        -0.9999997019767761,
        -0.9999967217445374,
        -0.9999971389770508,
        -1.0
      ],
      "type": "VEC4"
    },
    {
      "bufferView": 1,
      "componentType": 5126,
      "count": 65532,
      "max": [
        0.9735850095748901,
        0.9999920129776001
      ],
      "min": [
        3.999999989900971e-06,
        1.9999999949504854e-06
      ],
      "type": "VEC2"
    },
    {
      "bufferView": 0,
      "componentType": 5125,
      "count": 376677,
      "type": "SCALAR"
    },
    {
      "bufferView": 2,
      "byteOffset": 1572768,
      "componentType": 5126,
      "count": 3264,
      "max": [
        0.6282150149345398,
        0.3059009909629822,
        -0.05755399912595749
      ],
      "min": [
        -0.6320289969444275,
        -0.3689819872379303,
        -0.2177799940109253
      ],
      "type": "VEC3"
    },
    {
      "bufferView": 2,
      "byteOffset": 1611936,
      "componentType": 5126,
      "count": 3264,
      "max": [
        0.9999872446060181,
        0.999964714050293,
        0.9995892643928528
      ],
      "min": [
        -0.9999974966049194,
        -0.999964714050293,
        -0.9995892643928528
      ],
      "type": "VEC3"
    },
    {
      "bufferView": 3,
      "byteOffset": 1048512,
      "componentType": 5126,
      "count": 3264,
      "max": [
        0.9999185800552368,
        0.9997718334197998,
        0.9999792575836182,
        1.0
      ],
      "min": [
        -0.9999759793281555,
        -0.9997730851173401,
        -0.9997431635856628,
        -1.0
      ],
      "type": "VEC4"
    },
    {
      "bufferView": 1,
      "byteOffset": 524256,
      "componentType": 5126,
      "count": 3264,
      "max": [
        0.9460139870643616,
        0.9948229789733887
      ],
      "min": [
        0.001386999967508018,
        5.8000001445179805e-05
      ],
      "type": "VEC2"
    },
    {
      "bufferView": 0,
      "byteOffset": 1506708,
      "componentType": 5125,
      "count": 16515,
      "type": "SCALAR"
    }
  ],
  "asset": {
    "extras": {
      "author": "Kless Gyzen (https://sketchfab.com/klessgyzen)",
      "license": "CC-BY-4.0 (http://creativecommons.org/licenses/by/4.0/)",
      "source": "https://sketchfab.com/3d-models/wood-chest-photoscan-pbr-114d3c43e9b64f2bafb410cb39901d6c",
      "title": "Wood Chest Photoscan PBR"
    },
    "generator": "Sketchfab-13.23.0",
    "version": "2.0"
  },
  "bufferViews": [
    {
      "buffer": 0,
      "byteLength": 1572768,
      "name": "floatBufferViews",
      "target": 34963
    },
    {
      "buffer": 0,
      "byteLength": 550368,
      "byteOffset": 1572768,
      "byteStride": 8,
      "name": "floatBufferViews",
      "target": 34962
    },
    {
      "buffer": 0,
      "byteLength": 1651104,
      "byteOffset": 2123136,
      "byteStride": 12,
      "name": "floatBufferViews",
      "target": 34962
    },
    {
      "buffer": 0,
      "byteLength": 1100736,
      "byteOffset": 3774240,
      "byteStride": 16,
      "name": "floatBufferViews",
      "target": 34962
    }
  ],
  "buffers": [
    {
      "byteLength": 4874976,
      "uri": "scene.bin"
    }
  ],
  "images": [
    {
      "uri": "textures/chest_baseColor.jpeg"
    },
    {
      "uri": "textures/chest_metallicRoughness.png"
    },
    {
      "uri": "textures/chest_normal.png"
    }
  ],
  "materials": [
    {
      "doubleSided": true,
      "name": "chest",
      "normalTexture": {
        "index": 2
      },
      "pbrMetallicRoughness": {
        "baseColorTexture": {
          "index": 0
        },
        "metallicFactor": 0.0,
        "metallicRoughnessTexture": {
          "index": 1
        }
      }
    }
  ],
  "meshes": [
    {
      "name": "Object_0",
      "primitives": [
        {
          "attributes": {
            "NORMAL": 1,
            "POSITION": 0,
            "TANGENT": 2,
            "TEXCOORD_0": 3
          },
          "indices": 4,
          "material": 0,
          "mode": 4
        }
      ]
    },
    {
      "name": "Object_1",
      "primitives": [
        {
          "attributes": {
            "NORMAL": 6,
            "POSITION": 5,
            "TANGENT": 7,
            "TEXCOORD_0": 8
          },
          "indices": 9,
          "material": 0,
          "mode": 4
        }
      ]
    }
  ],
  "nodes": [
    {
      "children": [
        1
      ],
      "matrix": [
        1.0,
        0.0,
        0.0,
        0.0,
        0.0,
        2.220446049250313e-16,
        -1.0,
        0.0,
        0.0,
        1.0,
        2.220446049250313e-16,
        0.0,
        0.0,
        0.0,
        0.0,
        1.0
      ],
      "name": "Sketchfab_model"
    },
    {
      "children": [
        2,
        3
      ],
      "name": "chest photoscan.obj.cleaner.materialmerger.gles"
    },
    {
      "mesh": 0,
      "name": "Object_2"
    },
    {
      "mesh": 1,
      "name": "Object_3"
    }
  ],
  "samplers": [
    {
      "magFilter": 9729,
      "minFilter": 9987,
      "wrapS": 10497,
      "wrapT": 10497
    }
  ],
  "scene": 0,
  "scenes": [
    {
      "name": "Sketchfab_Scene",
      "nodes": [
        0
      ]
    }
  ],
  "textures": [
    {
      "sampler": 0,
      "source": 0
    },
    {
      "sampler": 0,
      "source": 1
    },
    {
      "sampler": 0,
      "source": 2
    }
  ]
}
