{
  "accessors": [
    {
      "bufferView": 2,
      "componentType": 5126,
      "count": 65532,
      "max": [
        50.0,
        1.1102230246251565e-14,
        50.0
      ],
      "min": [
        -50.0,
        -1.1102230246251565e-14,
        -50.0
      ],
      "type": "VEC3"
    },
    {
      "bufferView": 2,
      "byteOffset": 786384,
      "componentType": 5126,
      "count": 65532,
      "max": [
        2.7105006248420378e-21,
        1.0,
        2.220478077683631e-16
      ],
      "min": [
        -2.1684374160396397e-21,
        1.0,
        2.2204088592099727e-16
      ],
      "type": "VEC3"
    },
    {
      "bufferView": 3,
      "componentType": 5126,
      "count": 65532,
      "max": [
        1.0,
        7.64575318644981e-21,
        3.3689004339976236e-05,
        1.0
      ],
      "min": [
        1.0,
        -8.564660374116726e-21,
        -2.9621185603900813e-05,
        1.0
      ],
      "type": "VEC4"
    },
    {
      "bufferView": 1,
      "componentType": 5126,
      "count": 65532,
      "max": [
        1.0,
        1.0
      ],
      "min": [
        0.0,
        0.0
      ],
      "type": "VEC2"
    },
    {
      "bufferView": 0,
      "componentType": 5125,
      "count": 389181,
      "type": "SCALAR"
    },
    {
      "bufferView": 2,
      "byteOffset": 1572768,
      "componentType": 5126,
      "count": 38109,
      "max": [
        40.0,
        1.1102230246251565e-14,
        30.0
      ],
      "min": [
        -50.0,
        -6.661338147750939e-15,
        -50.0
      ],
      "type": "VEC3"
    },
    {
      "bufferView": 2,
      "byteOffset": 2030076,
      "componentType": 5126,
      "count": 38109,
      "max": [
        2.1684307517427123e-21,
        1.0,
        2.2204799305682033e-16
      ],
      "min": [
        -2.1684596303627307e-21,
        1.0,
        2.2204168001438532e-16
      ],
      "type": "VEC3"
    },
    {
      "bufferView": 3,
      "byteOffset": 1048512,
      "componentType": 5126,
      "count": 38109,
      "max": [
        1.0,
        7.64595190366728e-21,
        3.014814319612924e-05,
        1.0
      ],
      "min": [
        1.0,
        -7.231090130316392e-21,
        -2.8222786568221636e-05,
        1.0
      ],
      "type": "VEC4"
    },
    {
      "bufferView": 1,
      "byteOffset": 524256,
      "componentType": 5126,
      "count": 38109,
      "max": [
        0.9000000357627869,
        1.0
      ],
      "min": [
        0.0,
        0.20000000298023224
      ],
      "type": "VEC2"
    },
    {
      "bufferView": 0,
      "byteOffset": 1556724,
      "componentType": 5125,
      "count": 225219,
      "type": "SCALAR"
    }
  ],
  "asset": {
    "extras": {
      "author": "Rosh_ (https://sketchfab.com/Rosh_)",
      "license": "CC-BY-4.0 (http://creativecommons.org/licenses/by/4.0/)",
      "source": "https://sketchfab.com/3d-models/gravel-ground-7e5a3aefba274aa1977d06a7aa710c76",
      "title": "Gravel Ground"
    },
    "generator": "Sketchfab-12.67.0",
    "version": "2.0"
  },
  "bufferViews": [
    {
      "buffer": 0,
      "byteLength": 2457600,
      "name": "floatBufferViews",
      "target": 34963
    },
    {
      "buffer": 0,
      "byteLength": 829128,
      "byteOffset": 2457600,
      "byteStride": 8,
      "name": "floatBufferViews",
      "target": 34962
    },
    {
      "buffer": 0,
      "byteLength": 2487384,
      "byteOffset": 3286728,
      "byteStride": 12,
      "name": "floatBufferViews",
      "target": 34962
    },
    {
      "buffer": 0,
      "byteLength": 1658256,
      "byteOffset": 5774112,
      "byteStride": 16,
      "name": "floatBufferViews",
      "target": 34962
    }
  ],
  "buffers": [
    {
      "byteLength": 7432368,
      "uri": "scene.bin"
    }
  ],
  "images": [
    {
      "uri": "textures/m_plane_baseColor.png"
    },
    {
      "uri": "textures/m_plane_metallicRoughness.png"
    },
    {
      "uri": "textures/m_plane_normal.png"
    }
  ],
  "materials": [
    {
      "doubleSided": true,
      "name": "m_plane",
      "normalTexture": {
        "index": 2,
        "scale": 0.9956173780487805
      },
      "occlusionTexture": {
        "index": 1
      },
      "pbrMetallicRoughness": {
        "baseColorTexture": {
          "index": 0
        },
        "metallicRoughnessTexture": {
          "index": 1
        }
      }
    }
  ],
  "meshes": [
    {
      "name": "plane_m_plane_0",
      "primitives": [
        {
          "attributes": {
            "NORMAL": 1,
            "POSITION": 0,
            "TANGENT": 2,
            "TEXCOORD_0": 3
          },
          "indices": 4,
          "material": 0,
          "mode": 4
        }
      ]
    },
    {
      "name": "plane_m_plane_0",
      "primitives": [
        {
          "attributes": {
            "NORMAL": 6,
            "POSITION": 5,
            "TANGENT": 7,
            "TEXCOORD_0": 8
          },
          "indices": 9,
          "material": 0,
          "mode": 4
        }
      ]
    }
  ],
  "nodes": [
    {
      "children": [
        1
      ],
      "matrix": [
        1.0,
        0.0,
        0.0,
        0.0,
        0.0,
        2.220446049250313e-16,
        -1.0,
        0.0,
        0.0,
        1.0,
        2.220446049250313e-16,
        0.0,
        0.0,
        0.0,
        0.0,
        1.0
      ],
      "name": "Sketchfab_model"
    },
    {
      "children": [
        2
      ],
      "matrix": [
        1.0,
        0.0,
        0.0,
        0.0,
        0.0,
        0.0,
        1.0,
        0.0,
        0.0,
        -1.0,
        0.0,
        0.0,
        0.0,
        0.0,
        0.0,
        1.0
      ],
      "name": "8800fa44d77349ffb74816b3f7230322.fbx"
    },
    {
      "children": [
        3
      ],
      "name": "RootNode"
    },
    {
      "children": [
        4,
        5
      ],
      "name": "plane"
    },
    {
      "mesh": 0,
      "name": "plane_m_plane_0"
    },
    {
      "mesh": 1,
      "name": "plane_m_plane_0"
    }
  ],
  "samplers": [
    {
      "magFilter": 9729,
      "minFilter": 9987,
      "wrapS": 10497,
      "wrapT": 10497
    }
  ],
  "scene": 0,
  "scenes": [
    {
      "name": "Sketchfab_Scene",
      "nodes": [
        0
      ]
    }
  ],
  "textures": [
    {
      "sampler": 0,
      "source": 0
    },
    {
      "sampler": 0,
      "source": 1
    },
    {
      "sampler": 0,
      "source": 2
    }
  ]
}
