# Blender 4.5.3 LTS
# www.blender.org
mtllib cube.mtl
o Tets.002
v -1.000000 -1.000000 1.000000
v -1.000000 1.000000 1.000000
v -1.000000 -1.000000 -1.000000
v -1.000000 1.000000 -1.000000
v 1.000000 -1.000000 1.000000
v 1.000000 1.000000 1.000000
v 1.000000 -1.000000 -1.000000
v 1.000000 1.000000 -1.000000
vn 0.7071 -0.0000 0.7071
vn 0.7071 0.7071 -0.0000
vn -0.0000 -0.7071 -0.7071
vn -0.5774 -0.5774 -0.5774
vn -0.0000 1.0000 -0.0000
vn -0.4082 0.4082 -0.8165
s 0
f 4//1 2//1 3//1 8//1
f 3//2 2//2 1//2 7//2
f 6//3 5//3 2//3 8//3
f 5//4 1//4 2//4 7//4
f 7//5 2//5 5//5 8//5
f 7//6 3//6 2//6 8//6
