# Blender 4.5.3 LTS
# www.blender.org
mtllib icosphere_high_res.mtl
o Tets.004
v 0.000000 -1.000000 0.000000
v 0.723607 -0.447220 0.525725
v -0.276388 -0.447220 0.850649
v -0.894426 -0.447216 0.000000
v -0.276388 -0.447220 -0.850649
v 0.723607 -0.447220 -0.525725
v 0.276388 0.447220 0.850649
v -0.723607 0.447220 0.525725
v -0.723607 0.447220 -0.525725
v 0.276388 0.447220 -0.850649
v 0.894426 0.447216 0.000000
v 0.000000 1.000000 0.000000
v -0.162456 -0.850654 0.499995
v 0.425323 -0.850654 0.309011
v 0.262869 -0.525738 0.809012
v 0.850648 -0.525736 0.000000
v 0.425323 -0.850654 -0.309011
v -0.525730 -0.850652 0.000000
v -0.688189 -0.525736 0.499997
v -0.162456 -0.850654 -0.499995
v -0.688189 -0.525736 -0.499997
v 0.262869 -0.525738 -0.809012
v 0.951058 0.000000 0.309013
v 0.951058 0.000000 -0.309013
v 0.000000 0.000000 1.000000
v 0.587786 0.000000 0.809017
v -0.951058 0.000000 0.309013
v -0.587786 0.000000 0.809017
v -0.587786 0.000000 -0.809017
v -0.951058 0.000000 -0.309013
v 0.587786 0.000000 -0.809017
v 0.000000 0.000000 -1.000000
v 0.688189 0.525736 0.499997
v -0.262869 0.525738 0.809012
v -0.850648 0.525736 0.000000
v -0.262869 0.525738 -0.809012
v 0.688189 0.525736 -0.499997
v 0.162456 0.850654 0.499995
v 0.525730 0.850652 0.000000
v -0.425323 0.850654 0.309011
v -0.425323 0.850654 -0.309011
v 0.162456 0.850654 -0.499995
v -0.551097 -0.199940 0.199904
v -0.551097 0.199899 0.199904
v -0.551097 -0.200043 -0.200202
v -0.551097 0.200048 -0.200202
v -0.150995 -0.200059 0.599990
v -0.150995 0.199930 0.599990
v -0.150995 -0.600073 0.199813
v -0.150995 -0.200018 0.199813
v -0.150995 0.200030 0.199813
v -0.150995 0.600048 0.199813
v -0.150995 -0.600073 -0.200036
v -0.150995 -0.200044 -0.200036
v -0.150995 0.199907 -0.200036
v -0.150995 0.599983 -0.200036
v -0.150995 -0.199982 -0.600091
v -0.150995 0.200047 -0.600091
v 0.248955 -0.199943 0.600001
v 0.248955 0.200076 0.600001
v 0.248955 -0.599965 0.199872
v 0.248955 -0.199944 0.199872
v 0.248955 0.200036 0.199872
v 0.248955 0.599966 0.199872
v 0.248955 -0.600037 -0.200066
v 0.248955 -0.200017 -0.200066
v 0.248955 0.199984 -0.200066
v 0.248955 0.600104 -0.200066
v 0.248955 -0.200096 -0.600149
v 0.248955 0.200081 -0.600149
v 0.648959 -0.200036 0.199859
v 0.648959 0.199888 0.199859
v 0.648959 -0.200089 -0.200207
v 0.648959 0.200006 -0.200207
vn 0.9224 0.1458 -0.3576
vn -0.6976 0.0076 -0.7164
vn 0.5232 0.8466 -0.0980
vn 0.0323 -0.5278 -0.8487
vn -0.9860 0.1594 0.0492
vn -0.3155 0.6194 0.7189
vn -0.7923 -0.6016 -0.1016
vn 0.5479 -0.8284 -0.1169
vn 0.4553 -0.5142 0.7269
vn -0.2256 -0.8601 -0.4576
vn 0.9355 -0.3532 -0.0000
vn -0.7930 -0.1858 0.5802
vn -0.2222 -0.4291 0.8755
vn -0.8502 -0.5265 -0.0000
vn -0.0997 -0.9044 0.4148
vn -0.2243 0.7823 0.5812
vn 0.3856 -0.8944 0.2268
vn 0.7293 0.4608 -0.5057
vn 0.2838 -0.9159 0.2838
vn -0.2570 0.5552 -0.7910
vn -0.4924 -0.1676 0.8540
vn 0.2868 -0.7580 -0.5858
vn 0.9636 0.1861 0.1921
vn -0.1172 0.0725 -0.9905
vn 0.0862 0.8479 -0.5230
vn 0.4589 0.0130 -0.8884
vn -0.6172 -0.0229 -0.7864
vn -0.5176 -0.8375 0.1750
vn -0.5668 -0.0406 0.8228
vn -0.8490 0.5284 -0.0000
vn -0.6885 0.4852 0.5390
vn -0.3692 0.8507 0.3741
vn 0.5668 0.0406 -0.8228
vn -0.0540 0.1526 -0.9868
vn 0.5631 -0.6446 0.5170
vn 0.6069 -0.6613 0.4409
vn -0.3566 -0.5721 0.7386
vn 0.1682 0.0254 0.9854
vn 0.2304 0.3729 0.8988
vn -0.2220 0.4295 0.8753
vn -0.9674 0.0376 -0.2504
vn -0.5714 -0.5143 0.6396
vn -0.2570 0.5555 0.7908
vn -0.9026 -0.3738 0.2135
vn -0.9524 -0.3024 0.0385
vn 0.2620 0.8103 -0.5242
vn -0.1594 0.6982 -0.6979
vn -0.9657 -0.1681 0.1977
vn -0.2623 -0.5289 0.8071
vn -0.0411 0.5257 -0.8497
vn 0.5251 -0.0462 -0.8498
vn -0.2622 -0.5290 -0.8071
vn -0.0212 -0.5036 -0.8637
vn -0.6693 -0.4082 -0.6208
vn 0.9037 0.0751 0.4215
vn 0.5271 -0.0447 0.8486
vn 0.6068 -0.6614 -0.4409
vn 0.9394 -0.2884 0.1855
vn 0.7346 -0.4540 -0.5042
vn -0.7046 0.6488 -0.2876
vn 0.2625 -0.4477 0.8548
vn 0.4907 0.8186 -0.2986
vn 0.9420 -0.1017 0.3199
vn 0.4626 0.5429 0.7009
vn -0.5668 -0.7136 0.4118
vn -0.5285 -0.8447 0.0853
vn 0.5428 0.4339 0.7191
vn 0.3057 -0.9209 -0.2420
vn -0.0003 1.0000 -0.0003
vn -0.2213 -0.7789 0.5868
vn 0.4174 -0.5261 -0.7409
vn 0.1018 -0.0629 0.9928
vn 0.9040 -0.4194 0.0833
vn -0.0735 -0.8470 0.5265
vn -0.0882 -0.9922 0.0879
vn 0.4468 -0.8946 0.0002
vn 0.2120 0.7462 0.6310
vn -0.5681 -0.5192 -0.6385
vn 0.4317 -0.0000 0.9020
vn 0.8220 -0.5636 0.0822
vn 0.7799 -0.3779 -0.4989
vn -0.1121 -0.9904 0.0814
vn -0.0098 0.7121 -0.7020
vn -0.1119 -0.9904 -0.0813
vn -0.4906 0.8187 -0.2983
vn 0.0405 -0.4959 0.8674
vn 0.1167 -0.7604 0.6389
vn 0.2659 -0.5093 -0.8185
vn 0.4927 0.1672 0.8540
vn 0.2659 -0.5096 0.8183
vn 0.4495 -0.8053 0.3866
vn -0.4082 -0.4082 -0.8165
vn 0.9979 -0.0636 -0.0150
vn 0.7070 -0.0000 0.7072
vn -0.0000 1.0000 -0.0000
vn 0.4573 -0.8421 0.2859
vn 0.4266 0.8163 -0.3894
vn 0.2919 0.2917 0.9109
vn 0.6018 -0.2134 -0.7696
vn 0.2707 -0.8044 -0.5288
vn 0.3591 -0.2254 -0.9056
vn -0.0004 0.7073 -0.7069
vn 0.2621 0.1101 -0.9587
vn -0.0000 0.7073 -0.7070
vn -0.4945 0.8376 -0.2322
vn 0.7069 -0.7073 -0.0001
vn -0.5773 -0.5775 -0.5773
vn 0.7073 -0.0000 0.7070
vn 0.7071 0.7071 0.0001
vn 0.8490 -0.0000 0.5284
vn 0.0003 -0.9927 0.1210
vn -0.0002 -1.0000 0.0003
vn -0.7071 0.7071 0.0002
vn 0.5903 0.7621 -0.2659
vn 0.3424 0.8864 0.3115
vn 0.8208 0.0726 -0.5665
vn 0.2452 -0.7488 -0.6157
vn 0.4465 -0.2468 0.8601
vn 0.0594 -0.6755 -0.7349
vn -0.0000 -0.7071 -0.7071
vn 0.5772 0.5773 0.5776
vn 0.8164 -0.4083 -0.4084
vn -0.0000 -0.0000 1.0000
vn 0.5774 -0.5772 -0.5775
vn 0.5773 0.5774 -0.5774
vn 0.5773 0.5773 0.5774
vn -0.7070 0.7073 -0.0002
vn 0.0898 -0.0900 -0.9919
vn -0.7071 0.7071 -0.0001
vn 0.0003 0.7071 0.7071
vn 0.5304 -0.0595 -0.8457
vn 0.0001 -0.7070 -0.7072
vn 0.1653 -0.9723 0.1654
vn -0.0004 -1.0000 -0.0005
vn -0.0000 1.0000 0.0001
vn 0.0001 -0.1519 -0.9884
vn -0.7097 0.4983 0.4980
vn 0.6947 0.7100 -0.1156
vn -0.1057 0.9944 0.0004
vn -0.5317 0.3204 -0.7840
vn -0.9018 0.4167 -0.1148
vn -0.0001 -0.0000 1.0000
vn 0.6007 0.5273 0.6009
vn 0.0960 0.8035 0.5875
vn -0.1143 -0.1147 -0.9868
vn 0.0003 -0.7071 -0.7071
vn 0.6477 -0.6454 0.4049
vn 0.5588 -0.1925 -0.8066
vn 0.0443 0.4243 -0.9044
vn 0.5717 0.2192 0.7906
vn 0.4746 0.4961 -0.7271
vn 0.9786 -0.0480 -0.1999
vn -0.2671 -0.5836 -0.7668
vn 0.7070 -0.7072 -0.0001
vn 0.5774 -0.5773 -0.5773
vn -0.0001 -0.0002 -1.0000
vn -0.5771 0.5775 -0.5775
vn -0.7069 0.7073 -0.0000
vn 0.5274 -0.2383 -0.8155
vn 0.7070 -0.7073 -0.0002
vn -0.4083 -0.8165 -0.4083
vn 0.5773 0.5772 -0.5776
vn -0.3702 -0.9115 0.1791
vn 0.7071 0.7071 0.0002
vn 0.8810 -0.3814 -0.2798
vn -0.0271 -0.9025 -0.4299
vn 0.2912 -0.2909 -0.9114
vn -0.0002 -1.0000 0.0001
vn 0.8489 0.5285 -0.0001
vn -0.0396 -0.4346 -0.8998
vn -0.5771 0.5776 -0.5774
vn 0.2636 0.7353 -0.6244
vn 0.4523 -0.8389 -0.3029
vn 0.0099 0.7119 -0.7022
vn 0.6009 -0.6007 0.5274
vn 0.0001 -0.0000 1.0000
vn 0.5774 0.5773 0.5774
vn -0.0001 -0.0001 -1.0000
vn 0.4945 0.8375 -0.2322
vn 0.9762 0.1534 -0.1534
vn 0.5492 -0.4993 -0.6701
vn -0.0001 1.0000 -0.0002
vn 0.4083 0.4083 -0.8165
vn -0.5776 0.5773 -0.5772
vn -0.3063 0.9519 -0.0000
vn 0.0003 -0.7072 -0.7070
vn 0.9470 0.1708 -0.2721
vn -0.0003 0.8944 -0.4473
vn 0.6203 0.7844 -0.0060
vn -0.5428 0.8360 0.0803
vn 0.9748 -0.0000 -0.2233
vn 0.7072 -0.0000 0.7070
vn 0.9762 0.1534 0.1533
vn 0.0002 0.7071 0.7071
vn 0.2832 0.9164 0.2829
vn 0.6021 -0.4128 -0.6835
vn 0.6373 -0.1382 0.7582
vn 0.2940 0.6261 0.7222
vn -0.3343 0.3344 0.8812
vn -0.0000 -0.7072 -0.7071
vn -0.0000 0.7070 0.7072
vn -0.0000 0.7073 -0.7069
vn 0.5772 -0.5775 -0.5774
vn 0.9928 -0.1195 -0.0000
vn 0.9950 -0.0000 0.0999
vn -0.5899 0.7829 0.1977
vn -0.0003 1.0000 -0.0000
vn 0.0001 0.7074 -0.7068
vn 0.5772 -0.5774 -0.5775
vn 0.9916 -0.0000 -0.1296
vn 0.7070 0.7072 -0.0001
vn -0.0000 0.0001 -1.0000
vn 0.9097 -0.1497 -0.3874
vn -0.0003 0.7071 -0.7071
vn 0.6707 0.0476 -0.7402
vn -0.5502 0.8075 0.2127
vn -0.2657 0.7009 -0.6620
vn 0.0003 -0.4475 -0.8943
vn 0.8703 -0.3938 0.2957
vn 0.4166 -0.8923 0.1742
vn 0.7071 -0.7072 0.0001
vn 0.0326 0.9010 -0.4326
vn 0.0002 -0.7071 -0.7071
vn -0.0002 1.0000 -0.0002
vn 0.5774 -0.5773 -0.5774
vn 0.4439 0.8882 0.1185
vn 0.0115 -0.7127 0.7014
vn 0.0004 -0.0000 1.0000
vn 0.3381 0.7901 0.5113
vn -0.0708 0.6690 -0.7399
vn 0.0001 -0.9706 0.2409
vn 0.2223 -0.0000 -0.9750
vn 0.0003 -1.0000 -0.0002
vn -0.5539 -0.6215 -0.5540
vn -0.6006 0.0259 -0.7991
vn 0.5430 0.8359 0.0802
vn 0.5362 -0.8397 0.0863
vn 0.9474 -0.1431 0.2862
vn 0.0004 0.2891 0.9573
vn 0.6493 -0.5267 0.5487
vn 0.1549 -0.0000 -0.9879
vn -0.0000 -0.7072 -0.7070
vn -0.0001 0.5399 -0.8417
vn 0.0002 0.8942 -0.4476
vn -0.5775 0.5773 -0.5773
vn 0.3244 0.8885 -0.3245
vn 0.9928 -0.1196 -0.0000
vn -0.5251 -0.5764 -0.6261
vn -0.7952 -0.5582 -0.2370
vn -0.9914 -0.1301 -0.0112
vn 0.7070 -0.7072 0.0001
vn 0.7061 0.0019 -0.7081
vn -0.3592 0.7762 -0.5181
vn 0.7097 -0.7045 -0.0002
vn -0.5773 0.5775 -0.5772
vn 0.5776 0.5773 0.5771
vn 0.4174 0.8750 -0.2454
vn 0.0001 0.7071 -0.7072
vn -0.3389 -0.0000 -0.9408
vn -0.6705 0.0684 -0.7388
vn 0.0715 -0.6689 -0.7400
vn 0.5400 -0.1520 -0.8278
vn -0.7999 0.5418 -0.2582
vn 0.6477 0.4725 -0.5977
vn -0.5521 0.8338 0.0002
vn 0.5897 0.7830 0.1981
vn -0.4641 0.2365 -0.8537
vn 0.3804 -0.3802 0.8431
vn 0.7566 -0.4898 -0.4332
vn 0.3505 0.3354 -0.8744
vn -0.5774 -0.5773 -0.5773
vn 0.5510 -0.8077 0.2100
vn -0.0001 0.7070 -0.7072
vn -0.5775 0.5773 -0.5772
s 0
f 19//1 18//1 4//1 43//1
f 23//2 16//2 2//2 71//2
f 19//3 3//3 13//3 49//3
f 28//4 27//4 8//4 44//4
f 37//5 10//5 31//5 70//5
f 17//6 16//6 6//6 65//6
f 16//7 14//7 2//7 61//7
f 38//8 7//8 34//8 48//8
f 35//9 27//9 30//9 44//9
f 33//10 26//10 7//10 60//10
f 41//11 12//11 40//11 52//11
f 32//12 5//12 22//12 57//12
f 36//13 29//13 32//13 58//13
f 24//14 16//14 23//14 71//14
f 36//15 32//15 10//15 58//15
f 21//16 4//16 18//16 45//16
f 35//17 30//17 9//17 46//17
f 28//18 25//18 3//18 47//18
f 46//19 45//19 29//19 57//19
f 14//20 1//20 13//20 61//20
f 42//21 41//21 36//21 56//21
f 39//22 11//22 33//22 72//22
f 19//23 13//23 18//23 49//23
f 26//24 2//24 15//24 59//24
f 15//25 2//25 14//25 61//25
f 25//26 15//26 3//26 47//26
f 33//27 11//27 23//27 72//27
f 42//28 10//28 37//28 68//28
f 17//29 14//29 16//29 61//29
f 17//30 1//30 14//30 61//30
f 22//31 20//31 17//31 65//31
f 20//32 18//32 1//32 53//32
f 15//33 14//33 13//33 61//33
f 15//34 13//34 3//34 47//34
f 21//35 20//35 5//35 53//35
f 30//36 21//36 29//36 45//36
f 22//37 17//37 6//37 65//37
f 29//38 21//38 5//38 57//38
f 21//39 18//39 20//39 53//39
f 32//40 29//40 5//40 57//40
f 24//41 6//41 16//41 73//41
f 24//42 23//42 11//42 72//42
f 20//43 1//43 17//43 65//43
f 37//44 31//44 24//44 74//44
f 42//45 36//45 10//45 58//45
f 43//46 30//46 27//46 44//46
f 45//47 30//47 44//47 46//47
f 31//48 22//48 6//48 69//48
f 32//49 22//49 31//49 69//49
f 26//50 23//50 2//50 71//50
f 34//51 7//51 25//51 48//51
f 26//52 15//52 25//52 59//52
f 33//53 23//53 26//53 72//53
f 26//54 25//54 7//54 60//54
f 35//55 8//55 27//55 44//55
f 30//56 4//56 21//56 45//56
f 28//57 19//57 27//57 43//57
f 28//58 3//58 19//58 47//58
f 34//59 25//59 28//59 48//59
f 22//60 5//60 20//60 57//60
f 32//61 31//61 10//61 70//61
f 45//62 29//62 30//62 46//62
f 27//63 19//63 4//63 43//63
f 30//64 27//64 4//64 43//64
f 31//65 6//65 24//65 73//65
f 37//66 24//66 11//66 74//66
f 43//67 28//67 19//67 47//67
f 34//68 28//68 8//68 48//68
f 45//69 44//69 43//69 55//69
f 39//70 38//70 12//70 64//70
f 38//71 33//71 7//71 64//71
f 36//72 9//72 29//72 58//72
f 30//73 29//73 9//73 46//73
f 41//74 9//74 36//74 56//74
f 47//75 19//75 43//75 49//75
f 44//76 43//76 30//76 45//76
f 18//77 13//77 1//77 49//77
f 39//78 37//78 11//78 74//78
f 44//79 28//79 43//79 48//79
f 40//80 34//80 8//80 52//80
f 40//81 38//81 34//81 52//81
f 42//82 37//82 39//82 68//82
f 47//83 43//83 28//83 48//83
f 39//84 33//84 38//84 64//84
f 43//85 27//85 28//85 44//85
f 41//86 35//86 9//86 46//86
f 40//87 8//87 35//87 44//87
f 40//88 12//88 38//88 52//88
f 41//89 40//89 35//89 52//89
f 42//90 12//90 41//90 56//90
f 42//91 39//91 12//91 68//91
f 50//92 43//92 44//92 55//92
f 49//93 15//93 13//93 61//93
f 46//94 44//94 45//94 55//94
f 53//95 45//95 49//95 54//95
f 47//96 3//96 19//96 49//96
f 49//97 47//97 15//97 61//97
f 45//98 43//98 18//98 49//98
f 43//99 18//99 4//99 45//99
f 43//100 4//100 30//100 45//100
f 44//101 30//101 35//101 46//101
f 51//102 46//102 44//102 52//102
f 44//103 35//103 40//103 52//103
f 50//102 44//102 48//102 51//102
f 49//104 43//104 47//104 50//104
f 47//105 28//105 25//105 48//105
f 48//106 47//106 43//106 50//106
f 59//107 47//107 48//107 62//107
f 51//108 48//108 50//108 62//108
f 50//109 48//109 47//109 62//109
f 48//110 25//110 47//110 59//110
f 59//111 15//111 47//111 61//111
f 48//112 43//112 44//112 50//112
f 57//109 55//109 54//109 66//109
f 51//113 44//113 48//113 52//113
f 44//114 40//114 8//114 52//114
f 44//115 8//115 28//115 48//115
f 50//108 47//108 49//108 61//108
f 47//116 15//116 13//116 49//116
f 47//117 13//117 3//117 49//117
f 43//118 19//118 18//118 49//118
f 49//119 18//119 45//119 53//119
f 61//120 53//120 54//120 65//120
f 54//121 50//121 49//121 61//121
f 52//122 51//122 46//122 56//122
f 67//123 62//123 66//123 72//123
f 50//124 49//124 45//124 54//124
f 49//125 45//125 43//125 50//125
f 55//126 51//126 50//126 62//126
f 55//127 46//127 51//127 56//127
f 48//128 44//128 8//128 52//128
f 63//129 51//129 60//129 64//129
f 67//130 63//130 62//130 72//130
f 48//131 38//131 7//131 60//131
f 51//132 50//132 44//132 55//132
f 56//133 46//133 9//133 58//133
f 55//134 45//134 46//134 57//134
f 52//108 48//108 51//108 64//108
f 63//135 56//135 51//135 64//135
f 60//136 52//136 38//136 64//136
f 63//137 60//137 33//137 64//137
f 46//138 41//138 35//138 56//138
f 46//139 35//139 44//139 52//139
f 48//140 8//140 34//140 52//140
f 48//141 34//141 38//141 52//141
f 54//142 49//142 53//142 61//142
f 53//143 49//143 1//143 65//143
f 61//144 2//144 16//144 71//144
f 53//145 21//145 45//145 57//145
f 54//146 53//146 45//146 57//146
f 45//147 18//147 21//147 53//147
f 49//148 1//148 18//148 53//148
f 61//149 17//149 1//149 65//149
f 57//150 53//150 22//150 69//150
f 53//151 5//151 21//151 57//151
f 53//152 20//152 5//152 57//152
f 56//153 36//153 42//153 58//153
f 55//154 54//154 45//154 57//154
f 63//155 62//155 55//155 67//155
f 55//142 50//142 54//142 62//142
f 61//156 54//156 50//156 66//156
f 54//157 45//157 43//157 55//157
f 54//158 43//158 50//158 55//158
f 46//159 9//159 41//159 56//159
f 56//160 55//160 46//160 58//160
f 56//94 51//94 55//94 67//94
f 63//161 51//161 56//161 67//161
f 62//162 55//162 51//162 63//162
f 56//163 9//163 36//163 58//163
f 58//164 56//164 55//164 67//164
f 58//165 10//165 42//165 70//165
f 52//166 35//166 41//166 56//166
f 52//167 46//167 35//167 56//167
f 64//168 63//168 56//168 67//168
f 56//169 12//169 52//169 68//169
f 52//170 41//170 12//170 56//170
f 57//171 46//171 55//171 58//171
f 53//172 22//172 20//172 57//172
f 45//173 21//173 29//173 57//173
f 57//174 29//174 46//174 58//174
f 58//175 57//175 32//175 70//175
f 58//176 55//176 57//176 67//176
f 57//177 54//177 53//177 65//177
f 65//178 57//178 54//178 69//178
f 57//179 32//179 29//179 58//179
f 58//180 42//180 56//180 70//180
f 46//181 29//181 9//181 58//181
f 69//182 67//182 66//182 74//182
f 66//183 57//183 55//183 67//183
f 61//184 47//184 59//184 62//184
f 61//185 59//185 2//185 62//185
f 60//186 59//186 48//186 63//186
f 48//187 7//187 25//187 60//187
f 59//188 48//188 25//188 60//188
f 47//189 25//189 15//189 59//189
f 59//190 25//190 26//190 60//190
f 62//191 2//191 61//191 71//191
f 63//192 59//192 62//192 72//192
f 52//193 38//193 48//193 60//193
f 66//194 62//194 61//194 71//194
f 65//182 54//182 61//182 66//182
f 62//195 59//195 2//195 71//195
f 59//196 2//196 15//196 61//196
f 49//197 13//197 1//197 61//197
f 65//198 16//198 6//198 73//198
f 65//199 61//199 16//199 71//199
f 62//200 54//200 55//200 66//200
f 56//201 52//201 51//201 64//201
f 61//202 50//202 47//202 62//202
f 71//203 65//203 66//203 73//203
f 63//204 33//204 60//204 72//204
f 60//205 26//205 59//205 72//205
f 71//206 26//206 23//206 72//206
f 62//207 48//207 59//207 63//207
f 62//208 51//208 48//208 63//208
f 72//209 66//209 67//209 74//209
f 64//210 33//210 63//210 72//210
f 67//211 64//211 63//211 74//211
f 60//212 51//212 48//212 64//212
f 56//213 42//213 12//213 68//213
f 67//214 56//214 64//214 68//214
f 52//215 12//215 38//215 64//215
f 60//216 7//216 33//216 64//216
f 60//217 38//217 7//217 64//217
f 61//218 1//218 49//218 65//218
f 53//219 1//219 20//219 65//219
f 53//220 20//220 22//220 65//220
f 67//221 66//221 57//221 69//221
f 61//222 16//222 17//222 65//222
f 62//223 61//223 50//223 66//223
f 66//123 61//123 65//123 71//123
f 66//224 55//224 62//224 67//224
f 67//225 57//225 58//225 70//225
f 65//226 6//226 22//226 69//226
f 70//227 69//227 31//227 74//227
f 70//228 67//228 69//228 74//228
f 71//229 23//229 24//229 72//229
f 68//192 64//192 67//192 74//192
f 64//230 39//230 11//230 68//230
f 68//231 67//231 37//231 74//231
f 68//232 37//232 67//232 70//232
f 68//233 67//233 56//233 70//233
f 67//178 58//178 56//178 70//178
f 64//234 52//234 12//234 68//234
f 64//235 12//235 39//235 68//235
f 69//236 31//236 32//236 70//236
f 58//237 32//237 10//237 70//237
f 57//238 22//238 32//238 69//238
f 69//239 66//239 6//239 73//239
f 69//240 6//240 31//240 73//240
f 66//241 6//241 65//241 69//241
f 66//242 65//242 54//242 69//242
f 65//243 22//243 53//243 69//243
f 69//244 32//244 57//244 70//244
f 69//245 57//245 67//245 70//245
f 73//246 31//246 69//246 74//246
f 70//247 37//247 67//247 74//247
f 68//248 10//248 37//248 70//248
f 68//249 56//249 42//249 70//249
f 68//250 42//250 10//250 70//250
f 72//251 71//251 66//251 73//251
f 71//252 16//252 65//252 73//252
f 72//253 11//253 24//253 74//253
f 68//254 11//254 64//254 74//254
f 71//255 62//255 59//255 72//255
f 63//256 60//256 59//256 72//256
f 59//257 26//257 2//257 71//257
f 71//258 66//258 62//258 72//258
f 72//259 24//259 71//259 73//259
f 72//260 64//260 11//260 74//260
f 64//261 11//261 39//261 72//261
f 64//262 39//262 33//262 72//262
f 71//263 59//263 26//263 72//263
f 60//264 33//264 26//264 72//264
f 73//265 72//265 24//265 74//265
f 73//266 24//266 31//266 74//266
f 71//267 24//267 16//267 73//267
f 66//268 65//268 6//268 73//268
f 68//269 37//269 39//269 74//269
f 68//270 39//270 11//270 74//270
f 72//271 63//271 64//271 74//271
f 70//272 31//272 37//272 74//272
f 73//273 69//273 66//273 74//273
f 73//274 66//274 72//274 74//274
