{
  "accessors": [
    {
      "bufferView": 2,
      "componentType": 5126,
      "count": 1589,
      "max": [
        7.292215824127197,
        10.091903686523438,
        26.14996337890625
      ],
      "min": [
        -7.910460472106934,
        -10.09220027923584,
        -6.619649866479449e-06
      ],
      "type": "VEC3"
    },
    {
      "bufferView": 2,
      "byteOffset": 19068,
      "componentType": 5126,
      "count": 1589,
      "max": [
        0.999997615814209,
        0.999997615814209,
        0.2865053415298462
      ],
      "min": [
        -0.999997615814209,
        -0.999997615814209,
        -1.0
      ],
      "type": "VEC3"
    },
    {
      "bufferView": 3,
      "componentType": 5126,
      "count": 1589,
      "max": [
        1.0,
        1.0,
        0.9826854467391968,
        1.0
      ],
      "min": [
        -1.0,
        -1.0,
        -0.9581193923950195,
        -1.0
      ],
      "type": "VEC4"
    },
    {
      "bufferView": 1,
      "componentType": 5126,
      "count": 1589,
      "max": [
        0.9766343235969543,
        0.99951171875
      ],
      "min": [
        0.0004882809880655259,
        0.0004882216453552246
      ],
      "type": "VEC2"
    },
    {
      "bufferView": 1,
      "byteOffset": 12712,
      "componentType": 5126,
      "count": 1589,
      "max": [
        0.9766343235969543,
        0.99951171875
      ],
      "min": [
        0.0004882809880655259,
        0.0004882216453552246
      ],
      "type": "VEC2"
    },
    {
      "bufferView": 1,
      "byteOffset": 25424,
      "componentType": 5126,
      "count": 1589,
      "max": [
        0.9766343235969543,
        0.99951171875
      ],
      "min": [
        0.0004882809880655259,
        0.0004882216453552246
      ],
      "type": "VEC2"
    },
    {
      "bufferView": 1,
      "byteOffset": 38136,
      "componentType": 5126,
      "count": 1589,
      "max": [
        0.9766343235969543,
        0.99951171875
      ],
      "min": [
        0.0004882809880655259,
        0.0004882216453552246
      ],
      "type": "VEC2"
    },
    {
      "bufferView": 0,
      "componentType": 5125,
      "count": 3693,
      "type": "SCALAR"
    },
    {
      "bufferView": 2,
      "byteOffset": 38136,
      "componentType": 5126,
      "count": 24977,
      "max": [
        7.13317346572876,
        10.019840240478516,
        25.159982681274414
      ],
      "min": [
        -7.82411003112793,
        -10.01990032196045,
        -0.009168620221316814
      ],
      "type": "VEC3"
    },
    {
      "bufferView": 2,
      "byteOffset": 337860,
      "componentType": 5126,
      "count": 24977,
      "max": [
        0.9999978542327881,
        0.9999980926513672,
        1.0
      ],
      "min": [
        -0.9999978542327881,
        -0.9999978542327881,
        -1.0
      ],
      "type": "VEC3"
    },
    {
      "bufferView": 3,
      "byteOffset": 25424,
      "componentType": 5126,
      "count": 24977,
      "max": [
        1.0,
        1.0,
        0.999994158744812,
        1.0
      ],
      "min": [
        -1.0,
        -1.0,
        -0.9564316868782043,
        -1.0
      ],
      "type": "VEC4"
    },
    {
      "bufferView": 1,
      "byteOffset": 50848,
      "componentType": 5126,
      "count": 24977,
      "max": [
        0.9910783171653748,
        0.997100293636322
      ],
      "min": [
        0.0028996800538152456,
        0.002901315689086914
      ],
      "type": "VEC2"
    },
    {
      "bufferView": 1,
      "byteOffset": 250664,
      "componentType": 5126,
      "count": 24977,
      "max": [
        0.9910783171653748,
        0.997100293636322
      ],
      "min": [
        0.0028996800538152456,
        0.002901315689086914
      ],
      "type": "VEC2"
    },
    {
      "bufferView": 1,
      "byteOffset": 450480,
      "componentType": 5126,
      "count": 24977,
      "max": [
        0.9910783171653748,
        0.997100293636322
      ],
      "min": [
        0.0028996800538152456,
        0.002901315689086914
      ],
      "type": "VEC2"
    },
    {
      "bufferView": 1,
      "byteOffset": 650296,
      "componentType": 5126,
      "count": 24977,
      "max": [
        0.9910783171653748,
        0.997100293636322
      ],
      "min": [
        0.0028996800538152456,
        0.002901315689086914
      ],
      "type": "VEC2"
    },
    {
      "bufferView": 0,
      "byteOffset": 14772,
      "componentType": 5125,
      "count": 46884,
      "type": "SCALAR"
    },
    {
      "bufferView": 2,
      "byteOffset": 637584,
      "componentType": 5126,
      "count": 976,
      "max": [
        7.748684883117676,
        10.549006462097168,
        36.80028533935547
      ],
      "min": [
        -8.260519981384277,
        -10.548800468444824,
        5.999899864196777
      ],
      "type": "VEC3"
    },
    {
      "bufferView": 2,
      "byteOffset": 649296,
      "componentType": 5126,
      "count": 976,
      "max": [
        0.9811609387397766,
        0.9811591506004333,
        0.9981376528739929
      ],
      "min": [
        -0.9811501502990723,
        -0.9811591506004333,
        -1.0
      ],
      "type": "VEC3"
    },
    {
      "bufferView": 3,
      "byteOffset": 425056,
      "componentType": 5126,
      "count": 976,
      "max": [
        1.0,
        1.0,
        0.05804651975631714,
        1.0
      ],
      "min": [
        -1.0,
        -1.0,
        -0.004397769924253225,
        -1.0
      ],
      "type": "VEC4"
    },
    {
      "bufferView": 1,
      "byteOffset": 850112,
      "componentType": 5126,
      "count": 976,
      "max": [
        0.9989220499992371,
        0.99951171875
      ],
      "min": [
        0.0004882809880655259,
        0.0004882216453552246
      ],
      "type": "VEC2"
    },
    {
      "bufferView": 1,
      "byteOffset": 857920,
      "componentType": 5126,
      "count": 976,
      "max": [
        0.9989220499992371,
        0.99951171875
      ],
      "min": [
        0.0004882809880655259,
        0.0004882216453552246
      ],
      "type": "VEC2"
    },
    {
      "bufferView": 1,
      "byteOffset": 865728,
      "componentType": 5126,
      "count": 976,
      "max": [
        0.9989220499992371,
        0.99951171875
      ],
      "min": [
        0.0004882809880655259,
        0.0004882216453552246
      ],
      "type": "VEC2"
    },
    {
      "bufferView": 1,
      "byteOffset": 873536,
      "componentType": 5126,
      "count": 976,
      "max": [
        0.9989220499992371,
        0.99951171875
      ],
      "min": [
        0.0004882809880655259,
        0.0004882216453552246
      ],
      "type": "VEC2"
    },
    {
      "bufferView": 0,
      "byteOffset": 202308,
      "componentType": 5125,
      "count": 1752,
      "type": "SCALAR"
    },
    {
      "bufferView": 2,
      "byteOffset": 661008,
      "componentType": 5126,
      "count": 2872,
      "max": [
        5.849417686462402,
        -0.9915766716003418,
        6.12022590637207
      ],
      "min": [
        5.335159778594971,
        -5.644509792327881,
        3.182310104370117
      ],
      "type": "VEC3"
    },
    {
      "bufferView": 2,
      "byteOffset": 695472,
      "componentType": 5126,
      "count": 2872,
      "max": [
        0.999997615814209,
        0.9997234344482422,
        0.9940400123596191
      ],
      "min": [
        -0.999997615814209,
        -0.9996274709701538,
        -0.9998478889465332
      ],
      "type": "VEC3"
    },
    {
      "bufferView": 3,
      "byteOffset": 440672,
      "componentType": 5126,
      "count": 2872,
      "max": [
        0.9997344613075256,
        0.999933123588562,
        0.9375339150428772,
        1.0
      ],
      "min": [
        -0.9997298717498779,
        -0.9999986886978149,
        -0.9730677604675293,
        -1.0
      ],
      "type": "VEC4"
    },
    {
      "bufferView": 1,
      "byteOffset": 881344,
      "componentType": 5126,
      "count": 2872,
      "max": [
        0.9980442523956299,
        0.998046875
      ],
      "min": [
        0.0019531199941411614,
        0.015683889389038086
      ],
      "type": "VEC2"
    },
    {
      "bufferView": 1,
      "byteOffset": 904320,
      "componentType": 5126,
      "count": 2872,
      "max": [
        0.9980442523956299,
        0.998046875
      ],
      "min": [
        0.0019531199941411614,
        0.015683889389038086
      ],
      "type": "VEC2"
    },
    {
      "bufferView": 1,
      "byteOffset": 927296,
      "componentType": 5126,
      "count": 2872,
      "max": [
        0.9980442523956299,
        0.998046875
      ],
      "min": [
        0.0019531199941411614,
        0.015683889389038086
      ],
      "type": "VEC2"
    },
    {
      "bufferView": 1,
      "byteOffset": 950272,
      "componentType": 5126,
      "count": 2872,
      "max": [
        0.9980442523956299,
        0.998046875
      ],
      "min": [
        0.0019531199941411614,
        0.015683889389038086
      ],
      "type": "VEC2"
    },
    {
      "bufferView": 0,
      "byteOffset": 209316,
      "componentType": 5125,
      "count": 13716,
      "type": "SCALAR"
    },
    {
      "bufferView": 2,
      "byteOffset": 729936,
      "componentType": 5126,
      "count": 6043,
      "max": [
        0.18846583366394043,
        2.6000006198883057,
        19.510147094726563
      ],
      "min": [
        -0.9884650111198425,
        1.399999976158142,
        17.78260040283203
      ],
      "type": "VEC3"
    },
    {
      "bufferView": 2,
      "byteOffset": 802452,
      "componentType": 5126,
      "count": 6043,
      "max": [
        0.9999978542327881,
        0.9999978542327881,
        1.0
      ],
      "min": [
        -0.9999978542327881,
        -0.999997615814209,
        -1.0
      ],
      "type": "VEC3"
    },
    {
      "bufferView": 3,
      "byteOffset": 486624,
      "componentType": 5126,
      "count": 6043,
      "max": [
        1.0,
        1.0,
        0.9999976754188538,
        1.0
      ],
      "min": [
        -1.0,
        -1.0,
        -0.9999976754188538,
        -1.0
      ],
      "type": "VEC4"
    },
    {
      "bufferView": 1,
      "byteOffset": 973248,
      "componentType": 5126,
      "count": 6043,
      "max": [
        0.9980442523956299,
        0.998046875
      ],
      "min": [
        0.0019531199941411614,
        0.01656031608581543
      ],
      "type": "VEC2"
    },
    {
      "bufferView": 1,
      "byteOffset": 1021592,
      "componentType": 5126,
      "count": 6043,
      "max": [
        0.9980442523956299,
        0.998046875
      ],
      "min": [
        0.0019531199941411614,
        0.01656031608581543
      ],
      "type": "VEC2"
    },
    {
      "bufferView": 1,
      "byteOffset": 1069936,
      "componentType": 5126,
      "count": 6043,
      "max": [
        0.9980442523956299,
        0.998046875
      ],
      "min": [
        0.0019531199941411614,
        0.01656031608581543
      ],
      "type": "VEC2"
    },
    {
      "bufferView": 1,
      "byteOffset": 1118280,
      "componentType": 5126,
      "count": 6043,
      "max": [
        0.9980442523956299,
        0.998046875
      ],
      "min": [
        0.0019531199941411614,
        0.01656031608581543
      ],
      "type": "VEC2"
    },
    {
      "bufferView": 0,
      "byteOffset": 264180,
      "componentType": 5125,
      "count": 16362,
      "type": "SCALAR"
    },
    {
      "bufferView": 2,
      "byteOffset": 874968,
      "componentType": 5126,
      "count": 65532,
      "max": [
        8.42636775970459,
        10.911158561706543,
        30.762676239013672
      ],
      "min": [
        -8.350226402282715,
        -10.286754608154297,
        -6.619649866479449e-06
      ],
      "type": "VEC3"
    },
    {
      "bufferView": 2,
      "byteOffset": 1661352,
      "componentType": 5126,
      "count": 65532,
      "max": [
        0.9999980926513672,
        0.9999978542327881,
        1.0
      ],
      "min": [
        -0.9999984502792358,
        -0.9999978542327881,
        -1.0
      ],
      "type": "VEC3"
    },
    {
      "bufferView": 3,
      "byteOffset": 583312,
      "componentType": 5126,
      "count": 65532,
      "max": [
        1.0,
        1.0,
        0.9999978542327881,
        1.0
      ],
      "min": [
        -1.0,
        -1.0,
        -0.9999978542327881,
        -1.0
      ],
      "type": "VEC4"
    },
    {
      "bufferView": 1,
      "byteOffset": 1166624,
      "componentType": 5126,
      "count": 65532,
      "max": [
        0.9992758631706238,
        0.999755859375
      ],
      "min": [
        0.00024414100334979594,
        0.0002409219741821289
      ],
      "type": "VEC2"
    },
    {
      "bufferView": 1,
      "byteOffset": 1690880,
      "componentType": 5126,
      "count": 65532,
      "max": [
        0.9992758631706238,
        0.999755859375
      ],
      "min": [
        0.00024414100334979594,
        0.0002409219741821289
      ],
      "type": "VEC2"
    },
    {
      "bufferView": 1,
      "byteOffset": 2215136,
      "componentType": 5126,
      "count": 65532,
      "max": [
        0.9992758631706238,
        0.999755859375
      ],
      "min": [
        0.00024414100334979594,
        0.0002409219741821289
      ],
      "type": "VEC2"
    },
    {
      "bufferView": 1,
      "byteOffset": 2739392,
      "componentType": 5126,
      "count": 65532,
      "max": [
        0.9992758631706238,
        0.999755859375
      ],
      "min": [
        0.00024414100334979594,
        0.0002409219741821289
      ],
      "type": "VEC2"
    },
    {
      "bufferView": 0,
      "byteOffset": 329628,
      "componentType": 5125,
      "count": 153090,
      "type": "SCALAR"
    },
    {
      "bufferView": 2,
      "byteOffset": 2447736,
      "componentType": 5126,
      "count": 39018,
      "max": [
        8.111055374145508,
        8.199797630310059,
        20.471179962158203
      ],
      "min": [
        -8.350227355957031,
        -10.91100025177002,
        -6.619649866479449e-06
      ],
      "type": "VEC3"
    },
    {
      "bufferView": 2,
      "byteOffset": 2915952,
      "componentType": 5126,
      "count": 39018,
      "max": [
        0.9999978542327881,
        0.9999978542327881,
        1.0
      ],
      "min": [
        -0.9999978542327881,
        -0.9999980926513672,
        -1.0
      ],
      "type": "VEC3"
    },
    {
      "bufferView": 3,
      "byteOffset": 1631824,
      "componentType": 5126,
      "count": 39018,
      "max": [
        1.0,
        1.0,
        0.9999978542327881,
        1.0
      ],
      "min": [
        -1.0,
        -1.0,
        -0.9999978542327881,
        -1.0
      ],
      "type": "VEC4"
    },
    {
      "bufferView": 1,
      "byteOffset": 3263648,
      "componentType": 5126,
      "count": 39018,
      "max": [
        0.9973243474960327,
        0.999755859375
      ],
      "min": [
        0.00024414100334979594,
        0.0002409219741821289
      ],
      "type": "VEC2"
    },
    {
      "bufferView": 1,
      "byteOffset": 3575792,
      "componentType": 5126,
      "count": 39018,
      "max": [
        0.9973243474960327,
        0.999755859375
      ],
      "min": [
        0.00024414100334979594,
        0.0002409219741821289
      ],
      "type": "VEC2"
    },
    {
      "bufferView": 1,
      "byteOffset": 3887936,
      "componentType": 5126,
      "count": 39018,
      "max": [
        0.9973243474960327,
        0.999755859375
      ],
      "min": [
        0.00024414100334979594,
        0.0002409219741821289
      ],
      "type": "VEC2"
    },
    {
      "bufferView": 1,
      "byteOffset": 4200080,
      "componentType": 5126,
      "count": 39018,
      "max": [
        0.9973243474960327,
        0.999755859375
      ],
      "min": [
        0.00024414100334979594,
        0.0002409219741821289
      ],
      "type": "VEC2"
    },
    {
      "bufferView": 0,
      "byteOffset": 941988,
      "componentType": 5125,
      "count": 97011,
      "type": "SCALAR"
    },
    {
      "bufferView": 2,
      "byteOffset": 3384168,
      "componentType": 5126,
      "count": 65532,
      "max": [
        7.069692611694336,
        9.869489669799805,
        26.200016021728516
      ],
      "min": [
        -8.607489585876465,
        -9.644564628601074,
        -6.619649866479449e-06
      ],
      "type": "VEC3"
    },
    {
      "bufferView": 2,
      "byteOffset": 4170552,
      "componentType": 5126,
      "count": 65532,
      "max": [
        0.9999982118606567,
        0.9999978542327881,
        1.0
      ],
      "min": [
        -0.9999982118606567,
        -0.9999978542327881,
        -1.0
      ],
      "type": "VEC3"
    },
    {
      "bufferView": 3,
      "byteOffset": 2256112,
      "componentType": 5126,
      "count": 65532,
      "max": [
        1.0,
        1.0,
        0.9999978542327881,
        1.0
      ],
      "min": [
        -1.0,
        -1.0,
        -0.9999978542327881,
        -1.0
      ],
      "type": "VEC4"
    },
    {
      "bufferView": 1,
      "byteOffset": 4512224,
      "componentType": 5126,
      "count": 65532,
      "max": [
        0.9974463582038879,
        0.999755859375
      ],
      "min": [
        0.00024414100334979594,
        0.0002409219741821289
      ],
      "type": "VEC2"
    },
    {
      "bufferView": 1,
      "byteOffset": 5036480,
      "componentType": 5126,
      "count": 65532,
      "max": [
        0.9974463582038879,
        0.999755859375
      ],
      "min": [
        0.00024414100334979594,
        0.0002409219741821289
      ],
      "type": "VEC2"
    },
    {
      "bufferView": 1,
      "byteOffset": 5560736,
      "componentType": 5126,
      "count": 65532,
      "max": [
        0.9974463582038879,
        0.999755859375
      ],
      "min": [
        0.00024414100334979594,
        0.0002409219741821289
      ],
      "type": "VEC2"
    },
    {
      "bufferView": 1,
      "byteOffset": 6084992,
      "componentType": 5126,
      "count": 65532,
      "max": [
        0.9974463582038879,
        0.999755859375
      ],
      "min": [
        0.00024414100334979594,
        0.0002409219741821289
      ],
      "type": "VEC2"
    },
    {
      "bufferView": 0,
      "byteOffset": 1330032,
      "componentType": 5125,
      "count": 142998,
      "type": "SCALAR"
    },
    {
      "bufferView": 2,
      "byteOffset": 4956936,
      "componentType": 5126,
      "count": 342,
      "max": [
        -5.701962471008301,
        8.800433158874512,
        14.417969703674316
      ],
      "min": [
        -6.000563144683838,
        8.502004623413086,
        13.057427406311035
      ],
      "type": "VEC3"
    },
    {
      "bufferView": 2,
      "byteOffset": 4961040,
      "componentType": 5126,
      "count": 342,
      "max": [
        0.7071051001548767,
        0.9918002486228943,
        1.0
      ],
      "min": [
        -0.9916993975639343,
        -0.7071051001548767,
        -1.0
      ],
      "type": "VEC3"
    },
    {
      "bufferView": 3,
      "byteOffset": 3304624,
      "componentType": 5126,
      "count": 342,
      "max": [
        0.9967338442802429,
        0.9692786335945129,
        0.3287540376186371,
        -1.0
      ],
      "min": [
        -0.998049795627594,
        -0.9977273344993591,
        -0.322041779756546,
        -1.0
      ],
      "type": "VEC4"
    },
    {
      "bufferView": 1,
      "byteOffset": 6609248,
      "componentType": 5126,
      "count": 342,
      "max": [
        0.9961047172546387,
        0.967540979385376
      ],
      "min": [
        0.18319463729858398,
        0.05295610427856445
      ],
      "type": "VEC2"
    },
    {
      "bufferView": 1,
      "byteOffset": 6611984,
      "componentType": 5126,
      "count": 342,
      "max": [
        0.9961047172546387,
        0.967540979385376
      ],
      "min": [
        0.18319463729858398,
        0.05295610427856445
      ],
      "type": "VEC2"
    },
    {
      "bufferView": 1,
      "byteOffset": 6614720,
      "componentType": 5126,
      "count": 342,
      "max": [
        0.9961047172546387,
        0.967540979385376
      ],
      "min": [
        0.18319463729858398,
        0.05295610427856445
      ],
      "type": "VEC2"
    },
    {
      "bufferView": 1,
      "byteOffset": 6617456,
      "componentType": 5126,
      "count": 342,
      "max": [
        0.9961047172546387,
        0.967540979385376
      ],
      "min": [
        0.18319463729858398,
        0.05295610427856445
      ],
      "type": "VEC2"
    },
    {
      "bufferView": 0,
      "byteOffset": 1902024,
      "componentType": 5125,
      "count": 702,
      "type": "SCALAR"
    },
    {
      "bufferView": 2,
      "byteOffset": 4965144,
      "componentType": 5126,
      "count": 65534,
      "max": [
        7.78958797454834,
        10.486180305480957,
        26.200016021728516
      ],
      "min": [
        -8.399920463562012,
        -10.486021995544434,
        -6.619649866479449e-06
      ],
      "type": "VEC3"
    },
    {
      "bufferView": 2,
      "byteOffset": 5751552,
      "componentType": 5126,
      "count": 65534,
      "max": [
        0.9999978542327881,
        0.9999978542327881,
        1.0
      ],
      "min": [
        -0.9999978542327881,
        -0.9999978542327881,
        -1.0
      ],
      "type": "VEC3"
    },
    {
      "bufferView": 3,
      "byteOffset": 3310096,
      "componentType": 5126,
      "count": 65534,
      "max": [
        1.0,
        1.0,
        0.9999978542327881,
        1.0
      ],
      "min": [
        -1.0,
        -1.0,
        -0.9999978542327881,
        -1.0
      ],
      "type": "VEC4"
    },
    {
      "bufferView": 1,
      "byteOffset": 6620192,
      "componentType": 5126,
      "count": 65534,
      "max": [
        0.9985440373420715,
        0.999755859375
      ],
      "min": [
        0.00024414100334979594,
        0.0002409219741821289
      ],
      "type": "VEC2"
    },
    {
      "bufferView": 1,
      "byteOffset": 7144464,
      "componentType": 5126,
      "count": 65534,
      "max": [
        0.9985440373420715,
        0.999755859375
      ],
      "min": [
        0.00024414100334979594,
        0.0002409219741821289
      ],
      "type": "VEC2"
    },
    {
      "bufferView": 1,
      "byteOffset": 7668736,
      "componentType": 5126,
      "count": 65534,
      "max": [
        0.9985440373420715,
        0.999755859375
      ],
      "min": [
        0.00024414100334979594,
        0.0002409219741821289
      ],
      "type": "VEC2"
    },
    {
      "bufferView": 1,
      "byteOffset": 8193008,
      "componentType": 5126,
      "count": 65534,
      "max": [
        0.9985440373420715,
        0.999755859375
      ],
      "min": [
        0.00024414100334979594,
        0.0002409219741821289
      ],
      "type": "VEC2"
    },
    {
      "bufferView": 0,
      "byteOffset": 1904832,
      "componentType": 5125,
      "count": 145314,
      "type": "SCALAR"
    },
    {
      "bufferView": 2,
      "byteOffset": 6537960,
      "componentType": 5126,
      "count": 831,
      "max": [
        7.7020745277404785,
        2.3502085208892822,
        14.750142097473145
      ],
      "min": [
        7.006805896759033,
        1.649938941001892,
        12.46718692779541
      ],
      "type": "VEC3"
    },
    {
      "bufferView": 2,
      "byteOffset": 6547932,
      "componentType": 5126,
      "count": 831,
      "max": [
        0.999997615814209,
        0.999997615814209,
        1.0
      ],
      "min": [
        -0.999997615814209,
        -0.999997615814209,
        -1.0
      ],
      "type": "VEC3"
    },
    {
      "bufferView": 3,
      "byteOffset": 4358640,
      "componentType": 5126,
      "count": 831,
      "max": [
        1.0,
        1.0,
        0.9999976754188538,
        1.0
      ],
      "min": [
        -1.0,
        -1.0,
        -0.9999976754188538,
        -1.0
      ],
      "type": "VEC4"
    },
    {
      "bufferView": 1,
      "byteOffset": 8717280,
      "componentType": 5126,
      "count": 831,
      "max": [
        0.9962266683578491,
        0.9311772584915161
      ],
      "min": [
        0.00878183078020811,
        0.0003629326820373535
      ],
      "type": "VEC2"
    },
    {
      "bufferView": 1,
      "byteOffset": 8723928,
      "componentType": 5126,
      "count": 831,
      "max": [
        0.9962266683578491,
        0.9311772584915161
      ],
      "min": [
        0.00878183078020811,
        0.0003629326820373535
      ],
      "type": "VEC2"
    },
    {
      "bufferView": 1,
      "byteOffset": 8730576,
      "componentType": 5126,
      "count": 831,
      "max": [
        0.9962266683578491,
        0.9311772584915161
      ],
      "min": [
        0.00878183078020811,
        0.0003629326820373535
      ],
      "type": "VEC2"
    },
    {
      "bufferView": 1,
      "byteOffset": 8737224,
      "componentType": 5126,
      "count": 831,
      "max": [
        0.9962266683578491,
        0.9311772584915161
      ],
      "min": [
        0.00878183078020811,
        0.0003629326820373535
      ],
      "type": "VEC2"
    },
    {
      "bufferView": 0,
      "byteOffset": 2486088,
      "componentType": 5125,
      "count": 1653,
      "type": "SCALAR"
    },
    {
      "bufferView": 2,
      "byteOffset": 6557904,
      "componentType": 5126,
      "count": 65143,
      "max": [
        7.852911472320557,
        10.653318405151367,
        36.78273391723633
      ],
      "min": [
        -8.231053352355957,
        -10.653200149536133,
        6.012251377105713
      ],
      "type": "VEC3"
    },
    {
      "bufferView": 2,
      "byteOffset": 7339620,
      "componentType": 5126,
      "count": 65143,
      "max": [
        0.999997615814209,
        0.999997615814209,
        1.0
      ],
      "min": [
        -0.999997615814209,
        -0.999997615814209,
        -1.0
      ],
      "type": "VEC3"
    },
    {
      "bufferView": 3,
      "byteOffset": 4371936,
      "componentType": 5126,
      "count": 65143,
      "max": [
        1.0,
        1.0,
        0.9747615456581116,
        1.0
      ],
      "min": [
        -1.0,
        -1.0,
        -0.9747834205627441,
        -1.0
      ],
      "type": "VEC4"
    },
    {
      "bufferView": 1,
      "byteOffset": 8743872,
      "componentType": 5126,
      "count": 65143,
      "max": [
        0.999347984790802,
        0.99951171875
      ],
      "min": [
        0.0004882809880655259,
        0.0004882216453552246
      ],
      "type": "VEC2"
    },
    {
      "bufferView": 1,
      "byteOffset": 9265016,
      "componentType": 5126,
      "count": 65143,
      "max": [
        0.999347984790802,
        0.99951171875
      ],
      "min": [
        0.0004882809880655259,
        0.0004882216453552246
      ],
      "type": "VEC2"
    },
    {
      "bufferView": 0,
      "byteOffset": 2492700,
      "componentType": 5125,
      "count": 149196,
      "type": "SCALAR"
    },
    {
      "bufferView": 2,
      "byteOffset": 8121336,
      "componentType": 5126,
      "count": 65534,
      "max": [
        7.63874626159668,
        10.438940048217773,
        36.78273391723633
      ],
      "min": [
        -8.235450744628906,
        -10.438821792602539,
        5.990799903869629
      ],
      "type": "VEC3"
    },
    {
      "bufferView": 2,
      "byteOffset": 8907744,
      "componentType": 5126,
      "count": 65534,
      "max": [
        0.999997615814209,
        0.999997615814209,
        1.0
      ],
      "min": [
        -0.999997615814209,
        -0.999997615814209,
        -1.0
      ],
      "type": "VEC3"
    },
    {
      "bufferView": 3,
      "byteOffset": 5414224,
      "componentType": 5126,
      "count": 65534,
      "max": [
        1.0,
        1.0,
        1.0,
        1.0
      ],
      "min": [
        -1.0,
        -1.0,
        -0.9999976754188538,
        -1.0
      ],
      "type": "VEC4"
    },
    {
      "bufferView": 1,
      "byteOffset": 9786160,
      "componentType": 5126,
      "count": 65534,
      "max": [
        0.9731295704841614,
        0.99951171875
      ],
      "min": [
        0.0004882809880655259,
        0.026588916778564453
      ],
      "type": "VEC2"
    },
    {
      "bufferView": 1,
      "byteOffset": 10310432,
      "componentType": 5126,
      "count": 65534,
      "max": [
        0.9731295704841614,
        0.99951171875
      ],
      "min": [
        0.0004882809880655259,
        0.026588916778564453
      ],
      "type": "VEC2"
    },
    {
      "bufferView": 0,
      "byteOffset": 3089484,
      "componentType": 5125,
      "count": 107805,
      "type": "SCALAR"
    },
    {
      "bufferView": 2,
      "byteOffset": 9694152,
      "componentType": 5126,
      "count": 25,
      "max": [
        5.561736106872559,
        -7.0758280754089355,
        17.701343536376953
      ],
      "min": [
        -0.8342061042785645,
        -8.93723201751709,
        16.932340621948242
      ],
      "type": "VEC3"
    },
    {
      "bufferView": 2,
      "byteOffset": 9694452,
      "componentType": 5126,
      "count": 25,
      "max": [
        0.9194448590278625,
        0.690424919128418,
        0.7063063383102417
      ],
      "min": [
        -0.8655046820640564,
        -0.6991217136383057,
        -0.8136118650436401
      ],
      "type": "VEC3"
    },
    {
      "bufferView": 3,
      "byteOffset": 6462768,
      "componentType": 5126,
      "count": 25,
      "max": [
        0.890751838684082,
        0.9999340772628784,
        0.8196016550064087,
        1.0
      ],
      "min": [
        -0.8871356844902039,
        0.45441463589668274,
        -0.01926654763519764,
        -1.0
      ],
      "type": "VEC4"
    },
    {
      "bufferView": 1,
      "byteOffset": 10834704,
      "componentType": 5126,
      "count": 25,
      "max": [
        0.94410640001297,
        0.4583485722541809
      ],
      "min": [
        0.0370720811188221,
        0.4090743064880371
      ],
      "type": "VEC2"
    },
    {
      "bufferView": 1,
      "byteOffset": 10834904,
      "componentType": 5126,
      "count": 25,
      "max": [
        0.94410640001297,
        0.4583485722541809
      ],
      "min": [
        0.0370720811188221,
        0.4090743064880371
      ],
      "type": "VEC2"
    },
    {
      "bufferView": 0,
      "byteOffset": 3520704,
      "componentType": 5125,
      "count": 33,
      "type": "SCALAR"
    },
    {
      "bufferView": 2,
      "byteOffset": 9694752,
      "componentType": 5126,
      "count": 60259,
      "max": [
        7.748687267303467,
        10.548962593078613,
        37.676544189453125
      ],
      "min": [
        -8.38716983795166,
        -10.548844337463379,
        5.999900817871094
      ],
      "type": "VEC3"
    },
    {
      "bufferView": 2,
      "byteOffset": 10417860,
      "componentType": 5126,
      "count": 60259,
      "max": [
        0.9999978542327881,
        0.9999978542327881,
        1.0
      ],
      "min": [
        -0.9999978542327881,
        -0.9999980926513672,
        -1.0
      ],
      "type": "VEC3"
    },
    {
      "bufferView": 3,
      "byteOffset": 6463168,
      "componentType": 5126,
      "count": 60259,
      "max": [
        1.0,
        1.0,
        1.0,
        1.0
      ],
      "min": [
        -1.0,
        -1.0,
        -0.9999976754188538,
        -1.0
      ],
      "type": "VEC4"
    },
    {
      "bufferView": 1,
      "byteOffset": 10835104,
      "componentType": 5126,
      "count": 60259,
      "max": [
        0.9976407289505005,
        0.99951171875
      ],
      "min": [
        0.0004882809880655259,
        0.0009760856628417969
      ],
      "type": "VEC2"
    },
    {
      "bufferView": 1,
      "byteOffset": 11317176,
      "componentType": 5126,
      "count": 60259,
      "max": [
        0.9976407289505005,
        0.99951171875
      ],
      "min": [
        0.0004882809880655259,
        0.0009760856628417969
      ],
      "type": "VEC2"
    },
    {
      "bufferView": 0,
      "byteOffset": 3520836,
      "componentType": 5125,
      "count": 148566,
      "type": "SCALAR"
    },
    {
      "bufferView": 2,
      "byteOffset": 11140968,
      "componentType": 5126,
      "count": 2971,
      "max": [
        6.704252243041992,
        9.504003524780273,
        21.299985885620117
      ],
      "min": [
        -7.850210189819336,
        -10.249927520751953,
        -6.619649866479449e-06
      ],
      "type": "VEC3"
    },
    {
      "bufferView": 2,
      "byteOffset": 11176620,
      "componentType": 5126,
      "count": 2971,
      "max": [
        0.999997615814209,
        0.999997615814209,
        1.0
      ],
      "min": [
        -0.999997615814209,
        -0.999997615814209,
        -1.0
      ],
      "type": "VEC3"
    },
    {
      "bufferView": 3,
      "byteOffset": 7427312,
      "componentType": 5126,
      "count": 2971,
      "max": [
        1.0,
        1.0,
        0.9999976754188538,
        1.0
      ],
      "min": [
        -1.0,
        -1.0,
        -0.9999976754188538,
        -1.0
      ],
      "type": "VEC4"
    },
    {
      "bufferView": 1,
      "byteOffset": 11799248,
      "componentType": 5126,
      "count": 2971,
      "max": [
        0.9974117279052734,
        0.9990234375
      ],
      "min": [
        0.0009765619761310518,
        0.0009746551513671875
      ],
      "type": "VEC2"
    },
    {
      "bufferView": 1,
      "byteOffset": 11823016,
      "componentType": 5126,
      "count": 2971,
      "max": [
        0.9974117279052734,
        0.9990234375
      ],
      "min": [
        0.0009765619761310518,
        0.0009746551513671875
      ],
      "type": "VEC2"
    },
    {
      "bufferView": 1,
      "byteOffset": 11846784,
      "componentType": 5126,
      "count": 2971,
      "max": [
        0.9974117279052734,
        0.9990234375
      ],
      "min": [
        0.0009765619761310518,
        0.0009746551513671875
      ],
      "type": "VEC2"
    },
    {
      "bufferView": 1,
      "byteOffset": 11870552,
      "componentType": 5126,
      "count": 2971,
      "max": [
        0.9974117279052734,
        0.9990234375
      ],
      "min": [
        0.0009765619761310518,
        0.0009746551513671875
      ],
      "type": "VEC2"
    },
    {
      "bufferView": 0,
      "byteOffset": 4115100,
      "componentType": 5125,
      "count": 9738,
      "type": "SCALAR"
    },
    {
      "bufferView": 2,
      "byteOffset": 11212272,
      "componentType": 5126,
      "count": 65534,
      "max": [
        6.972509384155273,
        7.742693901062012,
        30.604063034057617
      ],
      "min": [
        -7.437270164489746,
        -7.729817867279053,
        2.5007100105285645
      ],
      "type": "VEC3"
    },
    {
      "bufferView": 2,
      "byteOffset": 11998680,
      "componentType": 5126,
      "count": 65534,
      "max": [
        0.999997615814209,
        0.999997615814209,
        1.0
      ],
      "min": [
        -0.9999978542327881,
        -0.999997615814209,
        -1.0
      ],
      "type": "VEC3"
    },
    {
      "bufferView": 3,
      "byteOffset": 7474848,
      "componentType": 5126,
      "count": 65534,
      "max": [
        1.0,
        1.0,
        1.0,
        1.0
      ],
      "min": [
        -1.0,
        -1.0,
        -1.0,
        -1.0
      ],
      "type": "VEC4"
    },
    {
      "bufferView": 1,
      "byteOffset": 11894320,
      "componentType": 5126,
      "count": 65534,
      "max": [
        0.9990253448486328,
        0.9990234375
      ],
      "min": [
        0.0009765619761310518,
        0.0010074377059936523
      ],
      "type": "VEC2"
    },
    {
      "bufferView": 1,
      "byteOffset": 12418592,
      "componentType": 5126,
      "count": 65534,
      "max": [
        0.9990253448486328,
        0.9990234375
      ],
      "min": [
        0.0009765619761310518,
        0.0010074377059936523
      ],
      "type": "VEC2"
    },
    {
      "bufferView": 1,
      "byteOffset": 12942864,
      "componentType": 5126,
      "count": 65534,
      "max": [
        0.9990253448486328,
        0.9990234375
      ],
      "min": [
        0.0009765619761310518,
        0.0010074377059936523
      ],
      "type": "VEC2"
    },
    {
      "bufferView": 1,
      "byteOffset": 13467136,
      "componentType": 5126,
      "count": 65534,
      "max": [
        0.9990253448486328,
        0.9990234375
      ],
      "min": [
        0.0009765619761310518,
        0.0010074377059936523
      ],
      "type": "VEC2"
    },
    {
      "bufferView": 1,
      "byteOffset": 13991408,
      "componentType": 5126,
      "count": 65534,
      "max": [
        0.9990253448486328,
        0.9990234375
      ],
      "min": [
        0.0009765619761310518,
        0.0010074377059936523
      ],
      "type": "VEC2"
    },
    {
      "bufferView": 0,
      "byteOffset": 4154052,
      "componentType": 5125,
      "count": 138765,
      "type": "SCALAR"
    },
    {
      "bufferView": 2,
      "byteOffset": 12785088,
      "componentType": 5126,
      "count": 263,
      "max": [
        -7.399890422821045,
        0.30085358023643494,
        5.7060770988464355
      ],
      "min": [
        -7.4126434326171875,
        -0.8413933515548706,
        4.578250885009766
      ],
      "type": "VEC3"
    },
    {
      "bufferView": 2,
      "byteOffset": 12788244,
      "componentType": 5126,
      "count": 263,
      "max": [
        0.0038001828361302614,
        0.9794239401817322,
        0.9078884124755859
      ],
      "min": [
        -0.999997615814209,
        -0.9794239401817322,
        -0.9078949689865112
      ],
      "type": "VEC3"
    },
    {
      "bufferView": 3,
      "byteOffset": 8523392,
      "componentType": 5126,
      "count": 263,
      "max": [
        1.0,
        1.0,
        0.999997615814209,
        1.0
      ],
      "min": [
        -1.0,
        -1.0,
        -0.9999976754188538,
        -1.0
      ],
      "type": "VEC4"
    },
    {
      "bufferView": 1,
      "byteOffset": 14515680,
      "componentType": 5126,
      "count": 263,
      "max": [
        0.9923237562179565,
        0.8841254711151123
      ],
      "min": [
        0.26124176383018494,
        0.02830028533935547
      ],
      "type": "VEC2"
    },
    {
      "bufferView": 1,
      "byteOffset": 14517784,
      "componentType": 5126,
      "count": 263,
      "max": [
        0.9923237562179565,
        0.8841254711151123
      ],
      "min": [
        0.26124176383018494,
        0.02830028533935547
      ],
      "type": "VEC2"
    },
    {
      "bufferView": 1,
      "byteOffset": 14519888,
      "componentType": 5126,
      "count": 263,
      "max": [
        0.9923237562179565,
        0.8841254711151123
      ],
      "min": [
        0.26124176383018494,
        0.02830028533935547
      ],
      "type": "VEC2"
    },
    {
      "bufferView": 1,
      "byteOffset": 14521992,
      "componentType": 5126,
      "count": 263,
      "max": [
        0.9923237562179565,
        0.8841254711151123
      ],
      "min": [
        0.26124176383018494,
        0.02830028533935547
      ],
      "type": "VEC2"
    },
    {
      "bufferView": 1,
      "byteOffset": 14524096,
      "componentType": 5126,
      "count": 263,
      "max": [
        0.9923237562179565,
        0.8841254711151123
      ],
      "min": [
        0.26124176383018494,
        0.02830028533935547
      ],
      "type": "VEC2"
    },
    {
      "bufferView": 0,
      "byteOffset": 4709112,
      "componentType": 5125,
      "count": 663,
      "type": "SCALAR"
    },
    {
      "bufferView": 2,
      "byteOffset": 12791400,
      "componentType": 5126,
      "count": 3467,
      "max": [
        6.929852485656738,
        7.700196266174316,
        30.573511123657227
      ],
      "min": [
        -7.414842128753662,
        -7.715179443359375,
        2.6268186569213867
      ],
      "type": "VEC3"
    },
    {
      "bufferView": 2,
      "byteOffset": 12833004,
      "componentType": 5126,
      "count": 3467,
      "max": [
        0.999997615814209,
        0.999997615814209,
        0.0022000158205628395
      ],
      "min": [
        -0.999997615814209,
        -0.999997615814209,
        -0.0022000158205628395
      ],
      "type": "VEC3"
    },
    {
      "bufferView": 3,
      "byteOffset": 8527600,
      "componentType": 5126,
      "count": 3467,
      "max": [
        1.0,
        1.0,
        0.9999976754188538,
        1.0
      ],
      "min": [
        -1.0,
        -1.0,
        -0.999997615814209,
        -1.0
      ],
      "type": "VEC4"
    },
    {
      "bufferView": 1,
      "byteOffset": 14526200,
      "componentType": 5126,
      "count": 3467,
      "max": [
        0.9377362728118896,
        0.9987797737121582
      ],
      "min": [
        0.0009765619761310518,
        0.008683562278747559
      ],
      "type": "VEC2"
    },
    {
      "bufferView": 1,
      "byteOffset": 14553936,
      "componentType": 5126,
      "count": 3467,
      "max": [
        0.9377362728118896,
        0.9987797737121582
      ],
      "min": [
        0.0009765619761310518,
        0.008683562278747559
      ],
      "type": "VEC2"
    },
    {
      "bufferView": 1,
      "byteOffset": 14581672,
      "componentType": 5126,
      "count": 3467,
      "max": [
        0.9377362728118896,
        0.9987797737121582
      ],
      "min": [
        0.0009765619761310518,
        0.008683562278747559
      ],
      "type": "VEC2"
    },
    {
      "bufferView": 1,
      "byteOffset": 14609408,
      "componentType": 5126,
      "count": 3467,
      "max": [
        0.9377362728118896,
        0.9987797737121582
      ],
      "min": [
        0.0009765619761310518,
        0.008683562278747559
      ],
      "type": "VEC2"
    },
    {
      "bufferView": 1,
      "byteOffset": 14637144,
      "componentType": 5126,
      "count": 3467,
      "max": [
        0.9377362728118896,
        0.9987797737121582
      ],
      "min": [
        0.0009765619761310518,
        0.008683562278747559
      ],
      "type": "VEC2"
    },
    {
      "bufferView": 0,
      "byteOffset": 4711764,
      "componentType": 5125,
      "count": 6225,
      "type": "SCALAR"
    },
    {
      "bufferView": 2,
      "byteOffset": 12874608,
      "componentType": 5126,
      "count": 8341,
      "max": [
        5.149997711181641,
        2.5099942684173584,
        17.250463485717773
      ],
      "min": [
        -0.6800379753112793,
        -6.900000095367432,
        1.0499999523162842
      ],
      "type": "VEC3"
    },
    {
      "bufferView": 2,
      "byteOffset": 12974700,
      "componentType": 5126,
      "count": 8341,
      "max": [
        0.9999978542327881,
        0.999997615814209,
        1.0
      ],
      "min": [
        -0.9999978542327881,
        -0.9999978542327881,
        -1.0
      ],
      "type": "VEC3"
    },
    {
      "bufferView": 3,
      "byteOffset": 8583072,
      "componentType": 5126,
      "count": 8341,
      "max": [
        1.0,
        1.0,
        0.9999977350234985,
        1.0
      ],
      "min": [
        -1.0,
        -1.0,
        -0.9999976754188538,
        -1.0
      ],
      "type": "VEC4"
    },
    {
      "bufferView": 1,
      "byteOffset": 14664880,
      "componentType": 5126,
      "count": 8341,
      "max": [
        0.9947596788406372,
        0.998046875
      ],
      "min": [
        0.0019531199941411614,
        0.001955747604370117
      ],
      "type": "VEC2"
    },
    {
      "bufferView": 1,
      "byteOffset": 14731608,
      "componentType": 5126,
      "count": 8341,
      "max": [
        0.9947596788406372,
        0.998046875
      ],
      "min": [
        0.0019531199941411614,
        0.001955747604370117
      ],
      "type": "VEC2"
    },
    {
      "bufferView": 1,
      "byteOffset": 14798336,
      "componentType": 5126,
      "count": 8341,
      "max": [
        0.9947596788406372,
        0.998046875
      ],
      "min": [
        0.0019531199941411614,
        0.001955747604370117
      ],
      "type": "VEC2"
    },
    {
      "bufferView": 1,
      "byteOffset": 14865064,
      "componentType": 5126,
      "count": 8341,
      "max": [
        0.9947596788406372,
        0.998046875
      ],
      "min": [
        0.0019531199941411614,
        0.001955747604370117
      ],
      "type": "VEC2"
    },
    {
      "bufferView": 0,
      "byteOffset": 4736664,
      "componentType": 5125,
      "count": 17058,
      "type": "SCALAR"
    },
    {
      "bufferView": 2,
      "byteOffset": 13074792,
      "componentType": 5126,
      "count": 15027,
      "max": [
        0.935526430606842,
        -6.92082405090332,
        21.79205322265625
      ],
      "min": [
        -0.9355250000953674,
        -7.879179954528809,
        18.150100708007813
      ],
      "type": "VEC3"
    },
    {
      "bufferView": 2,
      "byteOffset": 13255116,
      "componentType": 5126,
      "count": 15027,
      "max": [
        0.9999978542327881,
        0.9999978542327881,
        1.0
      ],
      "min": [
        -0.9999978542327881,
        -0.9999978542327881,
        -1.0
      ],
      "type": "VEC3"
    },
    {
      "bufferView": 1,
      "byteOffset": 14931792,
      "componentType": 5126,
      "count": 15027,
      "max": [
        0.9980442523956299,
        0.998046875
      ],
      "min": [
        0.0019531199941411614,
        0.012898921966552734
      ],
      "type": "VEC2"
    },
    {
      "bufferView": 1,
      "byteOffset": 15052008,
      "componentType": 5126,
      "count": 15027,
      "max": [
        0.9980442523956299,
        0.998046875
      ],
      "min": [
        0.0019531199941411614,
        0.012898921966552734
      ],
      "type": "VEC2"
    },
    {
      "bufferView": 1,
      "byteOffset": 15172224,
      "componentType": 5126,
      "count": 15027,
      "max": [
        0.9980442523956299,
        0.998046875
      ],
      "min": [
        0.0019531199941411614,
        0.012898921966552734
      ],
      "type": "VEC2"
    },
    {
      "bufferView": 0,
      "byteOffset": 4804896,
      "componentType": 5125,
      "count": 46290,
      "type": "SCALAR"
    },
    {
      "bufferView": 2,
      "byteOffset": 13435440,
      "componentType": 5126,
      "count": 251,
      "max": [
        7.18579626083374,
        9.986117362976074,
        9.503499995844322e-07
      ],
      "min": [
        -8.01688003540039,
        -10.249927520751953,
        -1.196499965772091e-07
      ],
      "type": "VEC3"
    },
    {
      "bufferView": 2,
      "byteOffset": 13438452,
      "componentType": 5126,
      "count": 251,
      "max": [
        0.0,
        9.999999747378752e-05,
        -1.0
      ],
      "min": [
        0.0,
        -9.999999747378752e-05,
        -1.0
      ],
      "type": "VEC3"
    },
    {
      "bufferView": 1,
      "byteOffset": 15292440,
      "componentType": 5126,
      "count": 251,
      "max": [
        0.7501867413520813,
        0.9978424310684204
      ],
      "min": [
        0.002157570095732808,
        0.0021608471870422363
      ],
      "type": "VEC2"
    },
    {
      "bufferView": 0,
      "byteOffset": 4990056,
      "componentType": 5125,
      "count": 747,
      "type": "SCALAR"
    },
    {
      "bufferView": 2,
      "byteOffset": 13441464,
      "componentType": 5126,
      "count": 935,
      "max": [
        7.479394912719727,
        9.906877517700195,
        24.61798095703125
      ],
      "min": [
        -8.108260154724121,
        -9.741689682006836,
        0.2640720009803772
      ],
      "type": "VEC3"
    },
    {
      "bufferView": 2,
      "byteOffset": 13452684,
      "componentType": 5126,
      "count": 935,
      "max": [
        0.9994855523109436,
        0.9996274709701538,
        0.828586757183075
      ],
      "min": [
        -0.9968810081481934,
        -0.9995414614677429,
        -0.9771688580513
      ],
      "type": "VEC3"
    },
    {
      "bufferView": 1,
      "byteOffset": 15294448,
      "componentType": 5126,
      "count": 935,
      "max": [
        0.9999982118606567,
        0.9518390893936157
      ],
      "min": [
        0.0,
        3.933906555175781e-06
      ],
      "type": "VEC2"
    },
    {
      "bufferView": 0,
      "byteOffset": 4993044,
      "componentType": 5125,
      "count": 2805,
      "type": "SCALAR"
    }
  ],
  "asset": {
    "extras": {
      "author": "golukumar (https://sketchfab.com/mortalityrexotable)",
      "license": "CC-BY-NC-SA-4.0 (http://creativecommons.org/licenses/by-nc-sa/4.0/)",
      "source": "https://sketchfab.com/3d-models/castle-church-8af2196e9c4a45219a6e9b65000f2109",
      "title": "Castle Church"
    },
    "generator": "Sketchfab-17.3.0",
    "version": "2.0"
  },
  "bufferViews": [
    {
      "buffer": 0,
      "byteLength": 5004264,
      "name": "floatBufferViews",
      "target": 34963
    },
    {
      "buffer": 0,
      "byteLength": 15301928,
      "byteOffset": 5004264,
      "byteStride": 8,
      "name": "floatBufferViews",
      "target": 34962
    },
    {
      "buffer": 0,
      "byteLength": 13463904,
      "byteOffset": 20306192,
      "byteStride": 12,
      "name": "floatBufferViews",
      "target": 34962
    },
    {
      "buffer": 0,
      "byteLength": 8716528,
      "byteOffset": 33770096,
      "byteStride": 16,
      "name": "floatBufferViews",
      "target": 34962
    }
  ],
  "buffers": [
    {
      "byteLength": 42486624,
      "uri": "scene.bin"
    }
  ],
  "extensionsUsed": [
    "KHR_materials_specular"
  ],
  "images": [
    {
      "uri": "textures/Material_baseColor.jpeg"
    },
    {
      "uri": "textures/Material_metallicRoughness.png"
    },
    {
      "uri": "textures/Material_normal.jpeg"
    },
    {
      "uri": "textures/Material.003_baseColor.jpeg"
    },
    {
      "uri": "textures/Material.003_metallicRoughness.png"
    },
    {
      "uri": "textures/Material.003_normal.jpeg"
    },
    {
      "uri": "textures/walls_Mat.001_baseColor.jpeg"
    },
    {
      "uri": "textures/walls_Mat.001_metallicRoughness.png"
    },
    {
      "uri": "textures/walls_Mat.001_normal.jpeg"
    },
    {
      "uri": "textures/walls_Mat.004_baseColor.jpeg"
    },
    {
      "uri": "textures/walls_Mat.004_metallicRoughness.png"
    },
    {
      "uri": "textures/walls_Mat.004_normal.jpeg"
    },
    {
      "uri": "textures/Material.005_baseColor.jpeg"
    },
    {
      "uri": "textures/Material.005_metallicRoughness.png"
    },
    {
      "uri": "textures/Material.005_normal.jpeg"
    },
    {
      "uri": "textures/walls_Mat.007_baseColor.jpeg"
    },
    {
      "uri": "textures/walls_Mat.007_metallicRoughness.png"
    },
    {
      "uri": "textures/walls_Mat.007_normal.jpeg"
    },
    {
      "uri": "textures/walls_Mat.008_baseColor.jpeg"
    },
    {
      "uri": "textures/walls_Mat.008_normal.jpeg"
    },
    {
      "uri": "textures/walls_Mat.002_baseColor.jpeg"
    },
    {
      "uri": "textures/walls_Mat.002_metallicRoughness.png"
    },
    {
      "uri": "textures/walls_Mat.002_normal.jpeg"
    },
    {
      "uri": "textures/walls_Mat.005_baseColor.jpeg"
    },
    {
      "uri": "textures/walls_Mat.005_metallicRoughness.png"
    },
    {
      "uri": "textures/walls_Mat.005_emissive.jpeg"
    },
    {
      "uri": "textures/walls_Mat.005_normal.jpeg"
    },
    {
      "uri": "textures/walls_Mat_baseColor.jpeg"
    },
    {
      "uri": "textures/walls_Mat_metallicRoughness.png"
    },
    {
      "uri": "textures/walls_Mat_normal.jpeg"
    },
    {
      "uri": "textures/walls_Mat_specularf0.png"
    },
    {
      "uri": "textures/Material.007_baseColor.jpeg"
    },
    {
      "uri": "textures/Material.007_metallicRoughness.png"
    },
    {
      "uri": "textures/leaves_Mat_baseColor.png"
    }
  ],
  "materials": [
    {
      "doubleSided": true,
      "name": "Material",
      "normalTexture": {
        "index": 2
      },
      "pbrMetallicRoughness": {
        "baseColorTexture": {
          "index": 0
        },
        "metallicFactor": 0.0,
        "metallicRoughnessTexture": {
          "index": 1
        }
      }
    },
    {
      "doubleSided": true,
      "name": "Material.003",
      "normalTexture": {
        "index": 5
      },
      "pbrMetallicRoughness": {
        "baseColorTexture": {
          "index": 3
        },
        "metallicFactor": 0.0,
        "metallicRoughnessTexture": {
          "index": 4
        }
      }
    },
    {
      "doubleSided": true,
      "name": "walls_Mat.001",
      "normalTexture": {
        "index": 8
      },
      "pbrMetallicRoughness": {
        "baseColorTexture": {
          "index": 6
        },
        "metallicFactor": 0.0,
        "metallicRoughnessTexture": {
          "index": 7
        }
      }
    },
    {
      "doubleSided": true,
      "name": "walls_Mat.004",
      "normalTexture": {
        "index": 11
      },
      "pbrMetallicRoughness": {
        "baseColorTexture": {
          "index": 9
        },
        "metallicFactor": 0.0,
        "metallicRoughnessTexture": {
          "index": 10
        }
      }
    },
    {
      "doubleSided": true,
      "name": "Material.005",
      "normalTexture": {
        "index": 14
      },
      "pbrMetallicRoughness": {
        "baseColorTexture": {
          "index": 12
        },
        "metallicRoughnessTexture": {
          "index": 13
        }
      }
    },
    {
      "doubleSided": true,
      "name": "walls_Mat.007",
      "normalTexture": {
        "index": 17,
        "texCoord": 2
      },
      "pbrMetallicRoughness": {
        "baseColorTexture": {
          "index": 15
        },
        "metallicFactor": 0.0,
        "metallicRoughnessTexture": {
          "index": 16,
          "texCoord": 1
        }
      }
    },
    {
      "doubleSided": true,
      "name": "walls_Mat.008",
      "normalTexture": {
        "index": 19,
        "texCoord": 1
      },
      "pbrMetallicRoughness": {
        "baseColorTexture": {
          "index": 18
        },
        "metallicFactor": 0.0
      }
    },
    {
      "doubleSided": true,
      "name": "walls_Mat.002",
      "normalTexture": {
        "index": 22
      },
      "pbrMetallicRoughness": {
        "baseColorTexture": {
          "index": 20
        },
        "metallicFactor": 0.0,
        "metallicRoughnessTexture": {
          "index": 21
        }
      }
    },
    {
      "doubleSided": true,
      "emissiveFactor": [
        1.0,
        1.0,
        1.0
      ],
      "emissiveTexture": {
        "index": 25,
        "texCoord": 2
      },
      "name": "walls_Mat.005",
      "normalTexture": {
        "index": 26,
        "texCoord": 3
      },
      "pbrMetallicRoughness": {
        "baseColorTexture": {
          "index": 23
        },
        "metallicRoughnessTexture": {
          "index": 24,
          "texCoord": 1
        }
      }
    },
    {
      "doubleSided": true,
      "extensions": {
        "KHR_materials_specular": {
          "specularColorFactor": [
            1.0,
            1.0,
            1.0
          ],
          "specularFactor": 1.0,
          "specularTexture": {
            "index": 30
          }
        }
      },
      "name": "walls_Mat",
      "normalTexture": {
        "index": 29
      },
      "pbrMetallicRoughness": {
        "baseColorTexture": {
          "index": 27
        },
        "metallicFactor": 0.0,
        "metallicRoughnessTexture": {
          "index": 28
        }
      }
    },
    {
      "doubleSided": true,
      "name": "Material.007",
      "pbrMetallicRoughness": {
        "baseColorTexture": {
          "index": 31
        },
        "metallicRoughnessTexture": {
          "index": 32
        }
      }
    },
    {
      "doubleSided": true,
      "name": "bottom_Mat",
      "pbrMetallicRoughness": {
        "baseColorFactor": [
          0.0,
          0.0,
          0.0,
          1.0
        ]
      }
    },
    {
      "alphaMode": "BLEND",
      "doubleSided": true,
      "name": "leaves_Mat",
      "pbrMetallicRoughness": {
        "baseColorTexture": {
          "index": 33
        }
      }
    }
  ],
  "meshes": [
    {
      "name": "Object_0",
      "primitives": [
        {
          "attributes": {
            "NORMAL": 1,
            "POSITION": 0,
            "TANGENT": 2,
            "TEXCOORD_0": 3,
            "TEXCOORD_1": 4,
            "TEXCOORD_2": 5,
            "TEXCOORD_3": 6
          },
          "indices": 7,
          "material": 0,
          "mode": 4
        }
      ]
    },
    {
      "name": "Object_1",
      "primitives": [
        {
          "attributes": {
            "NORMAL": 9,
            "POSITION": 8,
            "TANGENT": 10,
            "TEXCOORD_0": 11,
            "TEXCOORD_1": 12,
            "TEXCOORD_2": 13,
            "TEXCOORD_3": 14
          },
          "indices": 15,
          "material": 1,
          "mode": 4
        }
      ]
    },
    {
      "name": "Object_2",
      "primitives": [
        {
          "attributes": {
            "NORMAL": 17,
            "POSITION": 16,
            "TANGENT": 18,
            "TEXCOORD_0": 19,
            "TEXCOORD_1": 20,
            "TEXCOORD_2": 21,
            "TEXCOORD_3": 22
          },
          "indices": 23,
          "material": 2,
          "mode": 4
        }
      ]
    },
    {
      "name": "Object_3",
      "primitives": [
        {
          "attributes": {
            "NORMAL": 25,
            "POSITION": 24,
            "TANGENT": 26,
            "TEXCOORD_0": 27,
            "TEXCOORD_1": 28,
            "TEXCOORD_2": 29,
            "TEXCOORD_3": 30
          },
          "indices": 31,
          "material": 3,
          "mode": 4
        }
      ]
    },
    {
      "name": "Object_4",
      "primitives": [
        {
          "attributes": {
            "NORMAL": 33,
            "POSITION": 32,
            "TANGENT": 34,
            "TEXCOORD_0": 35,
            "TEXCOORD_1": 36,
            "TEXCOORD_2": 37,
            "TEXCOORD_3": 38
          },
          "indices": 39,
          "material": 4,
          "mode": 4
        }
      ]
    },
    {
      "name": "Object_5",
      "primitives": [
        {
          "attributes": {
            "NORMAL": 41,
            "POSITION": 40,
            "TANGENT": 42,
            "TEXCOORD_0": 43,
            "TEXCOORD_1": 44,
            "TEXCOORD_2": 45,
            "TEXCOORD_3": 46
          },
          "indices": 47,
          "material": 5,
          "mode": 4
        }
      ]
    },
    {
      "name": "Object_6",
      "primitives": [
        {
          "attributes": {
            "NORMAL": 49,
            "POSITION": 48,
            "TANGENT": 50,
            "TEXCOORD_0": 51,
            "TEXCOORD_1": 52,
            "TEXCOORD_2": 53,
            "TEXCOORD_3": 54
          },
          "indices": 55,
          "material": 5,
          "mode": 4
        }
      ]
    },
    {
      "name": "Object_7",
      "primitives": [
        {
          "attributes": {
            "NORMAL": 57,
            "POSITION": 56,
            "TANGENT": 58,
            "TEXCOORD_0": 59,
            "TEXCOORD_1": 60,
            "TEXCOORD_2": 61,
            "TEXCOORD_3": 62
          },
          "indices": 63,
          "material": 5,
          "mode": 4
        }
      ]
    },
    {
      "name": "Object_8",
      "primitives": [
        {
          "attributes": {
            "NORMAL": 65,
            "POSITION": 64,
            "TANGENT": 66,
            "TEXCOORD_0": 67,
            "TEXCOORD_1": 68,
            "TEXCOORD_2": 69,
            "TEXCOORD_3": 70
          },
          "indices": 71,
          "material": 5,
          "mode": 4
        }
      ]
    },
    {
      "name": "Object_9",
      "primitives": [
        {
          "attributes": {
            "NORMAL": 73,
            "POSITION": 72,
            "TANGENT": 74,
            "TEXCOORD_0": 75,
            "TEXCOORD_1": 76,
            "TEXCOORD_2": 77,
            "TEXCOORD_3": 78
          },
          "indices": 79,
          "material": 5,
          "mode": 4
        }
      ]
    },
    {
      "name": "Object_10",
      "primitives": [
        {
          "attributes": {
            "NORMAL": 81,
            "POSITION": 80,
            "TANGENT": 82,
            "TEXCOORD_0": 83,
            "TEXCOORD_1": 84,
            "TEXCOORD_2": 85,
            "TEXCOORD_3": 86
          },
          "indices": 87,
          "material": 5,
          "mode": 4
        }
      ]
    },
    {
      "name": "Object_11",
      "primitives": [
        {
          "attributes": {
            "NORMAL": 89,
            "POSITION": 88,
            "TANGENT": 90,
            "TEXCOORD_0": 91,
            "TEXCOORD_1": 92
          },
          "indices": 93,
          "material": 6,
          "mode": 4
        }
      ]
    },
    {
      "name": "Object_12",
      "primitives": [
        {
          "attributes": {
            "NORMAL": 95,
            "POSITION": 94,
            "TANGENT": 96,
            "TEXCOORD_0": 97,
            "TEXCOORD_1": 98
          },
          "indices": 99,
          "material": 6,
          "mode": 4
        }
      ]
    },
    {
      "name": "Object_13",
      "primitives": [
        {
          "attributes": {
            "NORMAL": 101,
            "POSITION": 100,
            "TANGENT": 102,
            "TEXCOORD_0": 103,
            "TEXCOORD_1": 104
          },
          "indices": 105,
          "material": 6,
          "mode": 4
        }
      ]
    },
    {
      "name": "Object_14",
      "primitives": [
        {
          "attributes": {
            "NORMAL": 107,
            "POSITION": 106,
            "TANGENT": 108,
            "TEXCOORD_0": 109,
            "TEXCOORD_1": 110
          },
          "indices": 111,
          "material": 6,
          "mode": 4
        }
      ]
    },
    {
      "name": "Object_15",
      "primitives": [
        {
          "attributes": {
            "NORMAL": 113,
            "POSITION": 112,
            "TANGENT": 114,
            "TEXCOORD_0": 115,
            "TEXCOORD_1": 116,
            "TEXCOORD_2": 117,
            "TEXCOORD_3": 118
          },
          "indices": 119,
          "material": 7,
          "mode": 4
        }
      ]
    },
    {
      "name": "Object_16",
      "primitives": [
        {
          "attributes": {
            "NORMAL": 121,
            "POSITION": 120,
            "TANGENT": 122,
            "TEXCOORD_0": 123,
            "TEXCOORD_1": 124,
            "TEXCOORD_2": 125,
            "TEXCOORD_3": 126,
            "TEXCOORD_4": 127
          },
          "indices": 128,
          "material": 8,
          "mode": 4
        }
      ]
    },
    {
      "name": "Object_17",
      "primitives": [
        {
          "attributes": {
            "NORMAL": 130,
            "POSITION": 129,
            "TANGENT": 131,
            "TEXCOORD_0": 132,
            "TEXCOORD_1": 133,
            "TEXCOORD_2": 134,
            "TEXCOORD_3": 135,
            "TEXCOORD_4": 136
          },
          "indices": 137,
          "material": 8,
          "mode": 4
        }
      ]
    },
    {
      "name": "Object_18",
      "primitives": [
        {
          "attributes": {
            "NORMAL": 139,
            "POSITION": 138,
            "TANGENT": 140,
            "TEXCOORD_0": 141,
            "TEXCOORD_1": 142,
            "TEXCOORD_2": 143,
            "TEXCOORD_3": 144,
            "TEXCOORD_4": 145
          },
          "indices": 146,
          "material": 8,
          "mode": 4
        }
      ]
    },
    {
      "name": "Object_19",
      "primitives": [
        {
          "attributes": {
            "NORMAL": 148,
            "POSITION": 147,
            "TANGENT": 149,
            "TEXCOORD_0": 150,
            "TEXCOORD_1": 151,
            "TEXCOORD_2": 152,
            "TEXCOORD_3": 153
          },
          "indices": 154,
          "material": 9,
          "mode": 4
        }
      ]
    },
    {
      "name": "Object_20",
      "primitives": [
        {
          "attributes": {
            "NORMAL": 156,
            "POSITION": 155,
            "TEXCOORD_0": 157,
            "TEXCOORD_1": 158,
            "TEXCOORD_2": 159
          },
          "indices": 160,
          "material": 10,
          "mode": 4
        }
      ]
    },
    {
      "name": "Object_21",
      "primitives": [
        {
          "attributes": {
            "NORMAL": 162,
            "POSITION": 161,
            "TEXCOORD_0": 163
          },
          "indices": 164,
          "material": 11,
          "mode": 4
        }
      ]
    },
    {
      "name": "Object_22",
      "primitives": [
        {
          "attributes": {
            "NORMAL": 166,
            "POSITION": 165,
            "TEXCOORD_0": 167
          },
          "indices": 168,
          "material": 12,
          "mode": 4
        }
      ]
    }
  ],
  "nodes": [
    {
      "children": [
        1
      ],
      "matrix": [
        1.0,
        0.0,
        0.0,
        0.0,
        0.0,
        2.220446049250313e-16,
        -1.0,
        0.0,
        0.0,
        1.0,
        2.220446049250313e-16,
        0.0,
        0.0,
        0.0,
        0.0,
        1.0
      ],
      "name": "Sketchfab_model"
    },
    {
      "children": [
        2
      ],
      "name": "root"
    },
    {
      "children": [
        3,
        5,
        7,
        9,
        11,
        13,
        16,
        19,
        22,
        24,
        27,
        29,
        31,
        34,
        36,
        38,
        40,
        42
      ],
      "matrix": [
        1.0,
        0.0,
        0.0,
        0.0,
        0.0,
        2.220446049250313e-16,
        1.0,
        0.0,
        0.0,
        -1.0,
        2.220446049250313e-16,
        0.0,
        0.0,
        0.0,
        0.0,
        1.0
      ],
      "name": "GLTF_SceneRootNode"
    },
    {
      "children": [
        4
      ],
      "matrix": [
        0.3333333730697632,
        0.0,
        -0.0,
        0.0,
        -0.0,
        -1.1239159118124753e-07,
        -0.3333333134650994,
        0.0,
        0.0,
        0.3333333134650994,
        -1.1239159118124753e-07,
        0.0,
        0.0,
        0.0,
        0.0,
        1.0
      ],
      "name": "walls_Mesh_walls_Mat_0_0"
    },
    {
      "mesh": 0,
      "name": "Object_4"
    },
    {
      "children": [
        6
      ],
      "matrix": [
        0.3333333730697632,
        0.0,
        -0.0,
        0.0,
        -0.0,
        -1.1239159118124753e-07,
        -0.3333333134650994,
        0.0,
        0.0,
        0.3333333134650994,
        -1.1239159118124753e-07,
        0.0,
        0.0,
        0.0,
        0.0,
        1.0
      ],
      "name": "bricks_Mesh_bricks_Mat_0_1"
    },
    {
      "mesh": 1,
      "name": "Object_6"
    },
    {
      "children": [
        8
      ],
      "matrix": [
        0.3333333730697632,
        0.0,
        -0.0,
        0.0,
        -0.0,
        -1.1239159118124753e-07,
        -0.3333333134650994,
        0.0,
        0.0,
        0.3333333134650994,
        -1.1239159118124753e-07,
        0.0,
        0.0,
        0.0,
        0.0,
        1.0
      ],
      "name": "roof_Mesh_roof_Mat_0_2"
    },
    {
      "mesh": 2,
      "name": "Object_8"
    },
    {
      "children": [
        10
      ],
      "matrix": [
        0.3333333730697632,
        0.0,
        -0.0,
        0.0,
        -0.0,
        -1.1239159118124753e-07,
        -0.3333333134650994,
        0.0,
        0.0,
        0.3333333134650994,
        -1.1239159118124753e-07,
        0.0,
        0.0,
        0.0,
        0.0,
        1.0
      ],
      "name": "statue_Mesh_statue_Mat_0_3"
    },
    {
      "mesh": 3,
      "name": "Object_10"
    },
    {
      "children": [
        12
      ],
      "matrix": [
        0.3333333730697632,
        0.0,
        -0.0,
        0.0,
        -0.0,
        -1.1239159118124753e-07,
        -0.3333333134650994,
        0.0,
        0.0,
        0.3333333134650994,
        -1.1239159118124753e-07,
        0.0,
        0.0,
        0.0,
        0.0,
        1.0
      ],
      "name": "bell_Mesh_bell_Mat_0_4"
    },
    {
      "mesh": 4,
      "name": "Object_12"
    },
    {
      "children": [
        14,
        15
      ],
      "matrix": [
        0.3333333730697632,
        0.0,
        -0.0,
        0.0,
        -0.0,
        -1.1239159118124753e-07,
        -0.3333333134650994,
        0.0,
        0.0,
        0.3333333134650994,
        -1.1239159118124753e-07,
        0.0,
        0.0,
        0.0,
        0.0,
        1.0
      ],
      "name": "plaster_Mesh_plaster_Mat_0_5"
    },
    {
      "mesh": 5,
      "name": "Object_14"
    },
    {
      "mesh": 6,
      "name": "Object_15"
    },
    {
      "children": [
        17,
        18
      ],
      "matrix": [
        0.3333333730697632,
        0.0,
        -0.0,
        0.0,
        -0.0,
        -1.1239159118124753e-07,
        -0.3333333134650994,
        0.0,
        0.0,
        0.3333333134650994,
        -1.1239159118124753e-07,
        0.0,
        0.0,
        0.0,
        0.0,
        1.0
      ],
      "name": "plaster_Mesh_plaster_Mat_0.001_6"
    },
    {
      "mesh": 7,
      "name": "Object_17"
    },
    {
      "mesh": 8,
      "name": "Object_18"
    },
    {
      "children": [
        20,
        21
      ],
      "matrix": [
        0.3333333730697632,
        0.0,
        -0.0,
        0.0,
        -0.0,
        -1.1239159118124753e-07,
        -0.3333333134650994,
        0.0,
        0.0,
        0.3333333134650994,
        -1.1239159118124753e-07,
        0.0,
        0.0,
        0.0,
        0.0,
        1.0
      ],
      "name": "plaster_Mesh_plaster_Mat_0.002_7"
    },
    {
      "mesh": 9,
      "name": "Object_20"
    },
    {
      "mesh": 10,
      "name": "Object_21"
    },
    {
      "children": [
        23
      ],
      "matrix": [
        0.3333333730697632,
        0.0,
        -0.0,
        0.0,
        -0.0,
        -1.1239159118124753e-07,
        -0.3333333134650994,
        0.0,
        0.0,
        0.3333333134650994,
        -1.1239159118124753e-07,
        0.0,
        0.0,
        0.0,
        0.0,
        1.0
      ],
      "name": "roof_parts_Mesh_roof_parts_Mat_0_8"
    },
    {
      "mesh": 11,
      "name": "Object_23"
    },
    {
      "children": [
        25,
        26
      ],
      "matrix": [
        0.3333333730697632,
        0.0,
        -0.0,
        0.0,
        -0.0,
        -1.1239159118124753e-07,
        -0.3333333134650994,
        0.0,
        0.0,
        0.3333333134650994,
        -1.1239159118124753e-07,
        0.0,
        0.0,
        0.0,
        0.0,
        1.0
      ],
      "name": "roof_parts_Mesh_roof_parts_Mat_0.001_9"
    },
    {
      "mesh": 12,
      "name": "Object_25"
    },
    {
      "mesh": 13,
      "name": "Object_26"
    },
    {
      "children": [
        28
      ],
      "matrix": [
        0.3333333730697632,
        0.0,
        -0.0,
        0.0,
        -0.0,
        -1.1239159118124753e-07,
        -0.3333333134650994,
        0.0,
        0.0,
        0.3333333134650994,
        -1.1239159118124753e-07,
        0.0,
        0.0,
        0.0,
        0.0,
        1.0
      ],
      "name": "roof_parts_Mesh_roof_parts_Mat_0.002_10"
    },
    {
      "mesh": 14,
      "name": "Object_28"
    },
    {
      "children": [
        30
      ],
      "matrix": [
        0.3333333730697632,
        0.0,
        -0.0,
        0.0,
        -0.0,
        -1.1239159118124753e-07,
        -0.3333333134650994,
        0.0,
        0.0,
        0.3333333134650994,
        -1.1239159118124753e-07,
        0.0,
        0.0,
        0.0,
        0.0,
        1.0
      ],
      "name": "bricks_old_Mesh_bricks_old_Mat_0_11"
    },
    {
      "mesh": 15,
      "name": "Object_30"
    },
    {
      "children": [
        32,
        33
      ],
      "matrix": [
        0.3333333730697632,
        0.0,
        -0.0,
        0.0,
        -0.0,
        -1.1239159118124753e-07,
        -0.3333333134650994,
        0.0,
        0.0,
        0.3333333134650994,
        -1.1239159118124753e-07,
        0.0,
        0.0,
        0.0,
        0.0,
        1.0
      ],
      "name": "stained_Mesh_stained_Mat_0_12"
    },
    {
      "mesh": 16,
      "name": "Object_32"
    },
    {
      "mesh": 17,
      "name": "Object_33"
    },
    {
      "children": [
        35
      ],
      "matrix": [
        0.3333333730697632,
        0.0,
        -0.0,
        0.0,
        -0.0,
        -1.1239159118124753e-07,
        -0.3333333134650994,
        0.0,
        0.0,
        0.3333333134650994,
        -1.1239159118124753e-07,
        0.0,
        0.0,
        0.0,
        0.0,
        1.0
      ],
      "name": "stained_Mesh_stained_Mat_0.001_13"
    },
    {
      "mesh": 18,
      "name": "Object_35"
    },
    {
      "children": [
        37
      ],
      "matrix": [
        0.3333333730697632,
        0.0,
        -0.0,
        0.0,
        -0.0,
        -1.1239159118124753e-07,
        -0.3333333134650994,
        0.0,
        0.0,
        0.3333333134650994,
        -1.1239159118124753e-07,
        0.0,
        0.0,
        0.0,
        0.0,
        1.0
      ],
      "name": "doors_Mesh_doors_Mat_0_14"
    },
    {
      "mesh": 19,
      "name": "Object_37"
    },
    {
      "children": [
        39
      ],
      "matrix": [
        0.3333333730697632,
        0.0,
        -0.0,
        0.0,
        -0.0,
        -1.1239159118124753e-07,
        -0.3333333134650994,
        0.0,
        0.0,
        0.3333333134650994,
        -1.1239159118124753e-07,
        0.0,
        0.0,
        0.0,
        0.0,
        1.0
      ],
      "name": "symbol_Mesh_symbol_Mat_0_15"
    },
    {
      "mesh": 20,
      "name": "Object_39"
    },
    {
      "children": [
        41
      ],
      "matrix": [
        0.3333333730697632,
        0.0,
        -0.0,
        0.0,
        -0.0,
        -1.1239159118124753e-07,
        -0.3333333134650994,
        0.0,
        0.0,
        0.3333333134650994,
        -1.1239159118124753e-07,
        0.0,
        0.0,
        0.0,
        0.0,
        1.0
      ],
      "name": "bottom_Mesh_bottom_Mat_0_16"
    },
    {
      "mesh": 21,
      "name": "Object_41"
    },
    {
      "children": [
        43
      ],
      "matrix": [
        0.3333333730697632,
        0.0,
        -0.0,
        0.0,
        -0.0,
        -1.1239159118124753e-07,
        -0.3333333134650994,
        0.0,
        0.0,
        0.3333333134650994,
        -1.1239159118124753e-07,
        0.0,
        0.0,
        0.0,
        0.0,
        1.0
      ],
      "name": "leaves_Mesh_leaves_Mat_0_17"
    },
    {
      "mesh": 22,
      "name": "Object_43"
    }
  ],
  "samplers": [
    {
      "magFilter": 9729,
      "minFilter": 9987,
      "wrapS": 10497,
      "wrapT": 10497
    }
  ],
  "scene": 0,
  "scenes": [
    {
      "name": "Sketchfab_Scene",
      "nodes": [
        0
      ]
    }
  ],
  "textures": [
    {
      "sampler": 0,
      "source": 0
    },
    {
      "sampler": 0,
      "source": 1
    },
    {
      "sampler": 0,
      "source": 2
    },
    {
      "sampler": 0,
      "source": 3
    },
    {
      "sampler": 0,
      "source": 4
    },
    {
      "sampler": 0,
      "source": 5
    },
    {
      "sampler": 0,
      "source": 6
    },
    {
      "sampler": 0,
      "source": 7
    },
    {
      "sampler": 0,
      "source": 8
    },
    {
      "sampler": 0,
      "source": 9
    },
    {
      "sampler": 0,
      "source": 10
    },
    {
      "sampler": 0,
      "source": 11
    },
    {
      "sampler": 0,
      "source": 12
    },
    {
      "sampler": 0,
      "source": 13
    },
    {
      "sampler": 0,
      "source": 14
    },
    {
      "sampler": 0,
      "source": 15
    },
    {
      "sampler": 0,
      "source": 16
    },
    {
      "sampler": 0,
      "source": 17
    },
    {
      "sampler": 0,
      "source": 18
    },
    {
      "sampler": 0,
      "source": 19
    },
    {
      "sampler": 0,
      "source": 20
    },
    {
      "sampler": 0,
      "source": 21
    },
    {
      "sampler": 0,
      "source": 22
    },
    {
      "sampler": 0,
      "source": 23
    },
    {
      "sampler": 0,
      "source": 24
    },
    {
      "sampler": 0,
      "source": 25
    },
    {
      "sampler": 0,
      "source": 26
    },
    {
      "sampler": 0,
      "source": 27
    },
    {
      "sampler": 0,
      "source": 28
    },
    {
      "sampler": 0,
      "source": 29
    },
    {
      "sampler": 0,
      "source": 30
    },
    {
      "sampler": 0,
      "source": 31
    },
    {
      "sampler": 0,
      "source": 32
    },
    {
      "sampler": 0,
      "source": 33
    }
  ]
}
